<svg width="64" height="64" viewBox="0 0 64 64" fill="none" xmlns="http://www.w3.org/2000/svg">
<rect x="0.5" y="0.5" width="63" height="63" rx="31.5" stroke="#2A948F"/>
<g clip-path="url(#clip0_7434_37302)">
<path d="M32 21.9525C32.5178 21.9525 32.9375 21.5328 32.9375 21.015V17.9187C32.9375 17.401 32.5178 16.9812 32 16.9812C31.4822 16.9812 31.0625 17.401 31.0625 17.9187V21.015C31.0625 21.5328 31.4822 21.9525 32 21.9525Z" fill="#2A948F"/>
<path d="M36.375 23.5437C36.615 23.5437 36.8549 23.4521 37.0379 23.2691L39.5379 20.7691C39.904 20.403 39.904 19.8094 39.5379 19.4432C39.1718 19.0772 38.5782 19.0772 38.2121 19.4432L35.7121 21.9432C35.346 22.3093 35.346 22.9029 35.7121 23.2691C35.8952 23.4521 36.1351 23.5437 36.375 23.5437Z" fill="#2A948F"/>
<path d="M26.9622 23.2693C27.1452 23.4524 27.3852 23.5439 27.625 23.5439C27.8649 23.5439 28.1049 23.4524 28.2879 23.2693C28.654 22.9032 28.654 22.3096 28.2879 21.9435L25.7879 19.4435C25.4218 19.0774 24.8282 19.0774 24.4621 19.4435C24.096 19.8096 24.096 20.4032 24.4621 20.7693L26.9622 23.2693Z" fill="#2A948F"/>
<path d="M40.4206 30.2316L36.7814 26.5923C36.0781 25.889 35.1243 25.4939 34.1296 25.4939H28.4372C27.0181 25.4939 25.6841 26.0465 24.6807 27.0499L24.3811 27.3495L24.3617 27.3688H16.9375C16.4197 27.3688 16 27.7886 16 28.3063V38.3063C16 38.8241 16.4197 39.2438 16.9375 39.2438H21.6117L23.8371 41.4692C24.0129 41.645 24.2514 41.7438 24.5 41.7438H25.3489C25.0347 41.2575 24.8324 40.7143 24.7533 40.1456C24.0524 39.9176 23.4217 39.4966 22.9359 38.9177C21.5238 37.2346 21.7441 34.7166 23.4271 33.3044L26.9903 30.3145H34.1049C34.3536 30.3145 34.5921 30.4133 34.7679 30.5891L37.3854 33.2067C38.2262 34.0475 39.6201 34.0654 40.4464 33.2105C41.2491 32.38 41.2404 31.0514 40.4206 30.2316Z" fill="#2A948F"/>
<path d="M48 30.2439C48 29.726 47.5803 29.3063 47.0625 29.3064H42.0959C43.2946 30.8733 43.1788 33.1301 41.7465 34.5626C40.9916 35.3175 39.9871 35.7331 38.9181 35.7331C37.849 35.7331 36.8445 35.3175 36.0897 34.5626L33.7168 32.1896H27.4973L26.7609 32.8075L24.3825 34.8033C23.49 35.5521 23.3736 36.8826 24.1224 37.775C24.8713 38.6675 26.2018 38.7838 27.0942 38.035C26.2018 38.7838 26.0854 40.1143 26.8342 41.0068C27.583 41.8992 28.9135 42.0156 29.8059 41.2668C28.9135 42.0156 28.7971 43.3461 29.5459 44.2385C30.2948 45.131 31.6253 45.2473 32.5177 44.4985L34.178 43.1053L33.9541 43.2933C33.0616 44.0421 32.9453 45.3726 33.6941 46.265C34.4429 47.1575 35.7734 47.2738 36.6658 46.525L43.0342 41.1813H47.0626C47.5804 41.1813 48.0001 40.7615 48.0001 40.2438L48 30.2439Z" fill="#2A948F"/>
</g>
<defs>
<clipPath id="clip0_7434_37302">
<rect width="32" height="32" fill="white" transform="translate(16 16)"/>
</clipPath>
</defs>
</svg>
