<svg width="56" height="57" viewBox="0 0 56 57" fill="none" xmlns="http://www.w3.org/2000/svg">
<g clip-path="url(#clip0_7434_37398)">
<path d="M53.2657 12.7441C53.2655 12.7441 53.2655 12.7441 53.2654 12.7441C51.3665 12.7441 49.5812 13.4836 48.2385 14.8263C46.8957 16.169 46.1562 17.9544 46.1562 19.8534V26.1128C43.9925 25.4122 41.5536 26.2908 40.373 28.3381L35.8577 36.1676C35.3905 36.9777 34.7952 37.6991 34.0886 38.3117C31.3313 40.7022 29.75 44.1663 29.75 47.8155V54.8535C29.75 55.7596 30.4846 56.4941 31.3906 56.4941H46.7031C47.6092 56.4941 48.3438 55.7596 48.3438 54.8535V50.9221L54.8826 39.7127C55.6137 38.4595 56 37.0302 56 35.5795V15.4785C56 13.9708 54.7734 12.7441 53.2657 12.7441ZM52.7188 35.5793C52.7188 36.4499 52.4869 37.3075 52.0483 38.0593L45.286 49.6519C45.1396 49.9028 45.0625 50.188 45.0625 50.4785V53.2129H33.0312V47.8155C33.0312 45.1182 34.2001 42.5579 36.2379 40.791C37.2214 39.9385 38.0497 38.9343 38.7002 37.8068L43.2155 29.9773C43.6685 29.1921 44.6759 28.922 45.4611 29.3743C45.8416 29.5938 46.114 29.9484 46.2279 30.3728C46.3416 30.7971 46.2833 31.2405 46.0636 31.621L40.7687 40.7906C40.3155 41.5753 40.5844 42.5788 41.369 43.0318C42.1538 43.4847 43.1571 43.2162 43.6102 42.4315L48.9052 33.2618C49.5346 32.1715 49.7206 30.9096 49.4374 29.6894V19.8533C49.4374 18.8307 49.8356 17.8695 50.5586 17.1465C51.1511 16.5539 51.9036 16.1796 52.7186 16.0638V35.5793H52.7188Z" fill="white"/>
<path d="M21.9113 38.3117C21.2048 37.6991 20.6096 36.9778 20.1423 36.1676L15.627 28.3383C14.4462 26.2908 12.0073 25.4124 9.84375 26.1129V19.8535C9.84375 17.9545 9.10427 16.1691 7.76147 14.8264C6.41867 13.4835 4.63323 12.744 2.73438 12.7441C1.22664 12.7441 0 13.9708 0 15.4785V35.5793C0 37.0301 0.386312 38.4594 1.11737 39.7127L7.65625 50.9221V54.8535C7.65625 55.7596 8.39081 56.4941 9.29688 56.4941H24.6094C25.5154 56.4941 26.25 55.7596 26.25 54.8535V47.8155C26.25 44.1663 24.6687 40.7022 21.9113 38.3117ZM22.9688 53.2129H10.9375V50.4785C10.9375 50.188 10.8604 49.9028 10.714 49.6519L3.95172 38.0594C3.51313 37.3075 3.28125 36.4499 3.28125 35.5793V16.0639C4.09631 16.1798 4.84881 16.554 5.4413 17.1466C6.16427 17.8696 6.5625 18.8309 6.5625 19.8534V29.6895C6.27933 30.9096 6.46527 32.1717 7.09472 33.2619L12.3897 42.4316C12.8429 43.2162 13.8463 43.485 14.6309 43.0319C15.4155 42.5788 15.6844 41.5754 15.2312 40.7907L9.93628 31.6211C9.71655 31.2405 9.65825 30.7973 9.772 30.3729C9.88586 29.9485 10.1582 29.5939 10.5388 29.3745C11.3241 28.9218 12.3317 29.192 12.7844 29.9775L17.2997 37.8068C17.9501 38.9345 18.7785 39.9386 19.7619 40.7911C21.7999 42.5579 22.9688 45.1182 22.9688 47.8155V53.2129Z" fill="white"/>
<path d="M42.7656 15.2598C42.7656 7.118 36.1418 0.494141 28 0.494141C19.8582 0.494141 13.2344 7.118 13.2344 15.2598C13.2344 23.4015 19.8582 30.0254 28 30.0254C36.1418 30.0254 42.7656 23.4015 42.7656 15.2598ZM16.5156 15.2598C16.5156 8.92728 21.6675 3.77539 28 3.77539C34.3325 3.77539 39.4844 8.92728 39.4844 15.2598C39.4844 17.5783 38.7931 19.7381 37.6067 21.5451C36.7332 19.7092 35.1905 18.2522 33.296 17.4881C34.0914 16.4024 34.5625 15.0651 34.5625 13.6191C34.5625 10.0006 31.6186 7.05664 28 7.05664C24.3814 7.05664 21.4375 10.0006 21.4375 13.6191C21.4375 15.0651 21.9086 16.4024 22.7038 17.4882C20.8095 18.2523 19.2667 19.7092 18.3933 21.5452C17.2069 19.7381 16.5156 17.5783 16.5156 15.2598ZM24.7188 13.6191C24.7188 11.8099 26.1907 10.3379 28 10.3379C29.8093 10.3379 31.2812 11.8099 31.2812 13.6191C31.2812 15.4284 29.8093 16.9004 28 16.9004C26.1907 16.9004 24.7188 15.4284 24.7188 13.6191ZM20.943 24.3138C21.2872 21.9793 23.3033 20.1816 25.7319 20.1816H30.268C32.6967 20.1816 34.7127 21.9793 35.0569 24.3138C33.1085 25.8359 30.6584 26.7441 28 26.7441C25.3416 26.7441 22.8915 25.8359 20.943 24.3138Z" fill="white"/>
</g>
<defs>
<clipPath id="clip0_7434_37398">
<rect width="56" height="56" fill="white" transform="translate(0 0.494141)"/>
</clipPath>
</defs>
</svg>
