<svg width="64" height="60" viewBox="0 0 64 60" fill="none" xmlns="http://www.w3.org/2000/svg">
<path d="M16.0797 43.4011L15.9662 43.394C15.0752 43.3388 14.2159 43.1713 13.3999 42.9084L7.69694 53.0136C7.17444 53.9393 7.49232 55.1234 8.40357 55.6464L14.0173 58.8683C14.9128 59.3823 16.0459 59.064 16.5593 58.1543L24.8856 43.4011H16.0797Z" fill="#2A948F"/>
<path d="M47.7495 0.665618L30.8086 11.2792V41.844L47.7708 52.1562C49.0211 52.9162 50.6047 51.9945 50.6047 50.5066V2.30195C50.6047 0.802619 48.9992 -0.117369 47.7495 0.665618Z" fill="#2A948F"/>
<path d="M6.06625 32.8224V19.9332C6.06625 19.1946 6.14437 18.4751 6.289 17.7809H3.562C1.59475 17.7809 0 19.4124 0 21.4249V31.3307C0 33.3433 1.59475 34.9748 3.562 34.9748H6.288C6.14388 34.2786 6.06625 33.5591 6.06625 32.8224Z" fill="#2A948F"/>
<path d="M27.0576 39.5634H16.1941C12.6729 39.345 9.81836 36.4247 9.81836 32.8224V19.9334C9.81836 16.3311 12.6729 13.411 16.1941 13.6296H27.0576V39.5634Z" fill="#2A948F"/>
<path d="M58.8389 42.0644C58.3589 42.0644 57.8789 41.877 57.5127 41.5023L53.7291 37.6316C52.9966 36.8824 52.9966 35.6675 53.7291 34.9181C54.4614 34.1689 55.6492 34.1689 56.3816 34.9181L60.1652 38.7888C60.8977 39.538 60.8977 40.753 60.1652 41.5023C59.7989 41.877 59.3189 42.0644 58.8389 42.0644Z" fill="#2A948F"/>
<path d="M55.0553 19.0391C54.5752 19.0391 54.0953 18.8518 53.7291 18.477C52.9966 17.7278 52.9966 16.5128 53.7291 15.7635L57.5127 11.8928C58.2452 11.1435 59.4327 11.1435 60.1652 11.8928C60.8976 12.642 60.8976 13.857 60.1652 14.6063L56.3816 18.477C56.0154 18.8517 55.5353 19.0391 55.0553 19.0391Z" fill="#2A948F"/>
<path d="M62.123 28.6164H56.7721C55.7362 28.6164 54.8965 27.7573 54.8965 26.6976C54.8965 25.6379 55.7362 24.7788 56.7721 24.7788H62.123C63.1589 24.7788 63.9986 25.6379 63.9986 26.6976C63.9986 27.7573 63.1589 28.6164 62.123 28.6164Z" fill="#2A948F"/>
</svg>
