<svg width="24" height="24" viewBox="0 0 24 24" fill="none" xmlns="http://www.w3.org/2000/svg">
<g clip-path="url(#clip0_12121_87616)">
<path d="M13.4594 15.8383L13.4608 15.839C13.4994 15.8591 13.5391 15.8795 13.5794 15.9001C13.6375 15.93 13.697 15.9605 13.7565 15.9918L15.1815 14.5712C15.6694 14.0834 16.2455 13.8219 16.8513 13.8219C17.462 13.8219 18.0338 14.0882 18.5032 14.5767C18.5034 14.5769 18.5036 14.5771 18.5039 14.5774L21.0691 17.1519C21.0691 17.1519 21.0692 17.152 21.0693 17.1521C21.5576 17.6357 21.8188 18.2167 21.8188 18.8267C21.8188 19.4315 21.5628 20.0164 21.085 20.5136C21.085 20.5137 21.0849 20.5137 21.0848 20.5138L21.0127 20.4445C20.8117 20.6549 20.6059 20.856 20.4049 21.0477L13.4594 15.8383ZM13.4594 15.8383C13.2902 15.7537 13.1358 15.6764 13.005 15.5953C11.6317 14.723 10.3821 13.5854 9.18169 12.1106C8.62138 11.4023 8.24076 10.8052 7.96241 10.2057C8.29068 9.90239 8.59873 9.58979 8.89671 9.2874C8.93024 9.25337 8.96364 9.21947 8.99694 9.18573C9.0626 9.12006 9.1282 9.05329 9.19345 8.98688L9.19371 8.98661C9.25923 8.91992 9.32438 8.85361 9.38947 8.78852C9.89597 8.28202 10.1552 7.69416 10.1552 7.10001C10.1552 6.50585 9.89597 5.918 9.38947 5.4115L8.113 4.13503C7.96784 3.98987 7.81938 3.84139 7.6804 3.69315L7.68041 3.69314L7.67931 3.692C7.39891 3.40226 7.10315 3.10176 6.79751 2.81955C6.32797 2.3554 5.7616 2.10453 5.16204 2.10453C4.56224 2.10453 3.98651 2.3556 3.50305 2.81972L3.50303 2.81971L3.50159 2.82115L3.49691 2.82583L3.49224 2.8305L3.49193 2.83081L1.90249 4.43427C1.90243 4.43433 1.90237 4.43439 1.90232 4.43445C1.28734 5.0495 0.935832 5.80076 0.858959 6.67039L0.858907 6.671C0.744822 8.05904 1.15355 9.34796 1.4633 10.1833C2.22539 12.2391 3.36332 14.1424 5.05711 16.1787L5.05732 16.179C7.11417 18.635 9.58949 20.575 12.4173 21.9419L12.418 21.9423C13.4958 22.4531 14.9455 23.0633 16.5691 23.1674L16.5707 23.1675C16.6686 23.1721 16.7738 23.1769 16.87 23.1769C17.977 23.1769 18.9111 22.778 19.6415 21.9851L19.6511 21.9747L19.6526 21.9718C19.6544 21.9698 19.6566 21.9674 19.6587 21.9649C19.6616 21.9615 19.6649 21.9572 19.6683 21.9522C19.8886 21.6861 20.1403 21.4427 20.4101 21.1818C20.4313 21.1613 20.4527 21.1406 20.4741 21.1198L13.4594 15.8383ZM20.1707 19.4992C20.1505 19.5224 20.1292 19.5456 20.1069 19.5688L20.1056 19.5676V19.4723C20.1137 19.4725 20.1227 19.4738 20.1322 19.4768C20.145 19.4808 20.1587 19.4879 20.1707 19.4992ZM20.0228 19.5108C20.0215 19.5125 20.02 19.5147 20.0183 19.5172C19.875 19.6706 19.7288 19.8128 19.5728 19.9645C19.5376 19.9986 19.502 20.0332 19.4658 20.0686C19.162 20.3584 18.851 20.6646 18.5582 21.0091C18.106 21.4919 17.5768 21.7192 16.8747 21.7192C16.8039 21.7192 16.7325 21.7191 16.6663 21.7147L16.666 21.7147C15.2975 21.6272 14.0215 21.0921 13.0559 20.6302C10.4226 19.3554 8.11011 17.5456 6.18803 15.2512C4.59934 13.3364 3.5398 11.5693 2.83848 9.67435L2.83838 9.67407C2.40671 8.51833 2.25216 7.62657 2.32067 6.79038C2.36546 6.26683 2.56566 5.8354 2.93698 5.46408L4.53026 3.87079C4.74756 3.66717 4.96702 3.56697 5.1714 3.56697C5.42584 3.56697 5.63994 3.72158 5.78334 3.86498L5.85405 3.79427L5.78334 3.86499L5.79737 3.87901L5.79733 3.87905L5.7998 3.88137C6.08309 4.14608 6.35284 4.42044 6.63787 4.71482L6.63788 4.71483C6.71068 4.78998 6.78461 4.86508 6.85879 4.94043L6.86055 4.94222C6.93424 5.01707 7.0082 5.09219 7.08211 5.16841L7.0821 5.16842L7.08319 5.16951L8.35966 6.44598C8.59797 6.68429 8.70209 6.89878 8.70209 7.10001C8.70209 7.30124 8.59797 7.51572 8.35966 7.75403C8.31339 7.80031 8.26811 7.84612 8.22324 7.89151C8.13493 7.98086 8.04823 8.06857 7.9588 8.15492L7.95877 8.15489L7.95672 8.15698C7.56435 8.5587 7.19215 8.93084 6.7879 9.29328L6.7878 9.29317L6.78424 9.29672C6.78411 9.29684 6.78386 9.29706 6.78345 9.2974L6.78081 9.29958L6.77613 9.3035C6.77135 9.3076 6.76225 9.31559 6.7533 9.32772C6.54237 9.54146 6.45152 9.75808 6.42802 9.96116C6.40456 10.1638 6.44923 10.3447 6.49278 10.4826L6.49277 10.4826L6.49327 10.4841L6.5073 10.5262L6.50707 10.5263L6.50973 10.5327C6.84623 11.3479 7.31937 12.1133 8.03386 13.0206L8.03331 13.021L8.04171 13.0294L8.04273 13.0304C9.33802 14.6253 10.7055 15.8708 12.2156 16.8258C12.4116 16.9501 12.6118 17.0502 12.7977 17.1431L12.7995 17.1441C12.9689 17.2288 13.1235 17.3061 13.2544 17.3874L13.2542 17.3878L13.2624 17.3919C13.2668 17.394 13.272 17.3972 13.2822 17.4036L13.2835 17.4044C13.292 17.4097 13.3049 17.4178 13.3185 17.4246C13.4895 17.5101 13.6543 17.5521 13.8262 17.5521C14.2557 17.5521 14.5238 17.2839 14.6064 17.2013L14.6076 17.2001L16.2067 15.601C16.3612 15.4465 16.5889 15.2797 16.842 15.2797C17.0902 15.2797 17.3038 15.4375 17.4414 15.5884L17.4413 15.5884L17.4446 15.5917L17.4539 15.601L17.5246 15.5303L17.4539 15.601L20.0303 18.1774L20.0306 18.1777C20.2598 18.4047 20.3623 18.6227 20.3628 18.8316C20.3632 19.0379 20.2644 19.2575 20.0435 19.4904C20.0366 19.4956 20.0293 19.5022 20.0228 19.5108Z" fill="#2A948F" stroke="#2A948F" stroke-width="0.2"/>
<path d="M18.5376 11.7066L18.5377 11.7067L18.5413 11.7061C18.9434 11.6409 19.2076 11.2609 19.143 10.862L19.1428 10.8612C18.8868 9.35838 18.1756 7.98831 17.0904 6.90306C16.0051 5.81781 14.6351 5.10661 13.1322 4.85061L13.1322 4.8506L13.1314 4.85048C12.7318 4.78567 12.358 5.05056 12.2876 5.44598C12.2174 5.83996 12.4762 6.22605 12.8794 6.29159C14.0834 6.49384 15.1773 7.06362 16.0512 7.93755C16.925 8.8113 17.4903 9.90527 17.6972 11.1098C17.7571 11.468 18.0666 11.7168 18.4177 11.7168C18.458 11.7168 18.4942 11.7122 18.5264 11.7081C18.5302 11.7076 18.534 11.7071 18.5376 11.7066Z" fill="#2A948F" stroke="#2A948F" stroke-width="0.2"/>
<path d="M12.4653 1.42952L12.4653 1.42951L12.465 1.43104C12.4002 1.83107 12.6656 2.2047 13.0654 2.27495L13.066 2.27505C15.2242 2.64092 17.1926 3.66435 18.7586 5.22571C20.3244 6.79155 21.3432 8.75988 21.7091 10.9181C21.7689 11.2763 22.0784 11.525 22.4295 11.525C22.4698 11.525 22.506 11.5204 22.5383 11.5163C22.542 11.5158 22.5458 11.5154 22.5495 11.5149L22.5495 11.5149L22.552 11.5146C22.9491 11.4547 23.2201 11.0749 23.15 10.6788C22.7303 8.21752 21.5703 5.97776 19.7883 4.1958C18.0064 2.41392 15.7668 1.2539 13.3057 0.834203C12.908 0.763602 12.5354 1.036 12.4653 1.42952Z" fill="#2A948F" stroke="#2A948F" stroke-width="0.2"/>
</g>
<defs>
<clipPath id="clip0_12121_87616">
<rect width="24" height="24" fill="white"/>
</clipPath>
</defs>
</svg>
