<svg width="64" height="64" viewBox="0 0 64 64" fill="none" xmlns="http://www.w3.org/2000/svg">
<rect x="0.5" y="0.5" width="63" height="63" rx="31.5" stroke="url(#paint0_linear_5134_1876)"/>
<g clip-path="url(#clip0_5134_1876)">
<path d="M32 25.4062C29.4154 25.4062 27.3125 23.3033 27.3125 20.7188C27.3125 18.1342 29.4154 16.0312 32 16.0312C34.5846 16.0312 36.6875 18.1342 36.6875 20.7188C36.6875 23.3033 34.5846 25.4062 32 25.4062Z" fill="url(#paint1_linear_5134_1876)"/>
<path d="M16.6266 42.8124C15.3348 40.5739 16.1048 37.7019 18.3433 36.4092C20.6277 35.0914 23.4735 35.9213 24.7465 38.1249C26.0416 40.3668 25.274 43.2322 23.0308 44.5281C20.7833 45.8241 17.921 45.0528 16.6266 42.8124Z" fill="url(#paint2_linear_5134_1876)"/>
<path d="M40.9693 44.5281C38.7277 43.233 37.9578 40.368 39.2537 38.1249C40.5266 35.9214 43.3723 35.0913 45.6568 36.4092C47.8953 37.702 48.6653 40.574 47.3735 42.8124C46.0808 45.05 43.22 45.826 40.9693 44.5281Z" fill="url(#paint3_linear_5134_1876)"/>
<path d="M19.8308 33.2242L17.9595 33.1216C18.203 28.6868 20.5724 24.5815 24.2967 22.1389L25.3258 23.7063C22.0967 25.824 20.0432 29.3826 19.8308 33.2242Z" fill="url(#paint4_linear_5134_1876)"/>
<path d="M44.1693 33.2241C43.9569 29.3825 41.9034 25.8239 38.6743 23.7063L39.7034 22.1389C43.4278 24.5815 45.7971 28.6868 46.0406 33.1216L44.1693 33.2241Z" fill="url(#paint5_linear_5134_1876)"/>
<path d="M32 47.9687C29.7698 47.9687 27.6375 47.4615 25.6609 46.4626L26.5068 44.7891C29.9309 46.5213 34.0691 46.5213 37.4931 44.7891L38.3391 46.4626C36.3625 47.4615 34.2303 47.9687 32 47.9687Z" fill="url(#paint6_linear_5134_1876)"/>
</g>
<defs>
<linearGradient id="paint0_linear_5134_1876" x1="32.1333" y1="64" x2="32.1333" y2="-21.4857" gradientUnits="userSpaceOnUse">
<stop stop-color="#FBEB37"/>
<stop offset="0.631058" stop-color="#FEFACD"/>
<stop offset="1" stop-color="#FEFCE6"/>
</linearGradient>
<linearGradient id="paint1_linear_5134_1876" x1="32.0195" y1="25.4062" x2="32.0195" y2="12.8839" gradientUnits="userSpaceOnUse">
<stop stop-color="#FBEB37"/>
<stop offset="0.631058" stop-color="#FEFACD"/>
<stop offset="1" stop-color="#FEFCE6"/>
</linearGradient>
<linearGradient id="paint2_linear_5134_1876" x1="20.7075" y1="45.1573" x2="20.7075" y2="32.6297" gradientUnits="userSpaceOnUse">
<stop stop-color="#FBEB37"/>
<stop offset="0.631058" stop-color="#FEFACD"/>
<stop offset="1" stop-color="#FEFCE6"/>
</linearGradient>
<linearGradient id="paint3_linear_5134_1876" x1="43.3317" y1="45.1575" x2="43.3317" y2="32.6296" gradientUnits="userSpaceOnUse">
<stop stop-color="#FBEB37"/>
<stop offset="0.631058" stop-color="#FEFACD"/>
<stop offset="1" stop-color="#FEFCE6"/>
</linearGradient>
<linearGradient id="paint4_linear_5134_1876" x1="21.658" y1="33.2242" x2="21.658" y2="18.4174" gradientUnits="userSpaceOnUse">
<stop stop-color="#FBEB37"/>
<stop offset="0.631058" stop-color="#FEFACD"/>
<stop offset="1" stop-color="#FEFCE6"/>
</linearGradient>
<linearGradient id="paint5_linear_5134_1876" x1="42.3728" y1="33.2241" x2="42.3728" y2="18.4175" gradientUnits="userSpaceOnUse">
<stop stop-color="#FBEB37"/>
<stop offset="0.631058" stop-color="#FEFACD"/>
<stop offset="1" stop-color="#FEFCE6"/>
</linearGradient>
<linearGradient id="paint6_linear_5134_1876" x1="32.0264" y1="47.9687" x2="32.0264" y2="43.7216" gradientUnits="userSpaceOnUse">
<stop stop-color="#FBEB37"/>
<stop offset="0.631058" stop-color="#FEFACD"/>
<stop offset="1" stop-color="#FEFCE6"/>
</linearGradient>
<clipPath id="clip0_5134_1876">
<rect width="32" height="32" fill="white" transform="translate(16 16)"/>
</clipPath>
</defs>
</svg>
