<svg width="64" height="64" viewBox="0 0 64 64" fill="none" xmlns="http://www.w3.org/2000/svg">
<rect x="0.5" y="0.5" width="63" height="63" rx="31.5" stroke="url(#paint0_linear_5134_2146)"/>
<path d="M42.5625 22.9873C40.667 22.9873 39.125 24.5293 39.125 26.4248C39.125 27.1827 39.3792 27.8776 39.7963 28.4465L37.4463 31.5791L34.3752 25.5193C35.0272 24.8934 35.4375 24.0179 35.4375 23.0449C35.4375 21.1494 33.8955 19.6074 32 19.6074C30.1045 19.6074 28.5625 21.1494 28.5625 23.0449C28.5625 24.0179 28.9728 24.8934 29.6248 25.5193L26.5537 31.5791L24.2037 28.4465C24.6208 27.8776 24.875 27.1827 24.875 26.4248C24.875 24.5293 23.333 22.9873 21.4375 22.9873C19.542 22.9873 18 24.5293 18 26.4248C18 28.1143 19.2273 29.5151 20.8358 29.8015L22.001 39.5117C22.061 40.0146 22.4873 40.3926 22.9937 40.3926H41.0063C41.5127 40.3926 41.939 40.0146 41.999 39.5117L43.1642 29.8015C44.7727 29.5151 46 28.1143 46 26.4248C46 24.5293 44.458 22.9873 42.5625 22.9873Z" fill="url(#paint1_linear_5134_2146)"/>
<path d="M41.0063 44.3926C41.5586 44.3926 42.0063 43.9453 42.0063 43.3926C42.0063 42.8398 41.5586 42.3926 41.0063 42.3926H22.9937C22.4414 42.3926 21.9937 42.8398 21.9937 43.3926C21.9937 43.9453 22.4414 44.3926 22.9937 44.3926H41.0063Z" fill="black"/>
<defs>
<linearGradient id="paint0_linear_5134_2146" x1="32.1333" y1="64" x2="32.1333" y2="-21.4857" gradientUnits="userSpaceOnUse">
<stop stop-color="#FBEB37"/>
<stop offset="0.631058" stop-color="#FEFACD"/>
<stop offset="1" stop-color="#FEFCE6"/>
</linearGradient>
<linearGradient id="paint1_linear_5134_2146" x1="32.0583" y1="40.3926" x2="32.0583" y2="12.6295" gradientUnits="userSpaceOnUse">
<stop stop-color="#FBEB37"/>
<stop offset="0.631058" stop-color="#FEFACD"/>
<stop offset="1" stop-color="#FEFCE6"/>
</linearGradient>
</defs>
</svg>
