<svg width="64" height="64" viewBox="0 0 64 64" fill="none" xmlns="http://www.w3.org/2000/svg">
<rect x="0.5" y="0.5" width="63" height="63" rx="31.5" stroke="url(#paint0_linear_5134_802)"/>
<path fill-rule="evenodd" clip-rule="evenodd" d="M38.6667 23.9999C38.6667 27.6818 35.6819 30.6666 32 30.6666C28.3181 30.6666 25.3333 27.6818 25.3333 23.9999C25.3333 20.318 28.3181 17.3333 32 17.3333C35.6819 17.3333 38.6667 20.318 38.6667 23.9999ZM29.3333 33.3333C24.1787 33.3333 20 37.5119 20 42.6666C20 44.8758 21.7909 46.6666 24 46.6666H33.8791C34.4553 46.6666 34.7827 45.9627 34.4843 45.4697C33.7537 44.2627 33.3333 42.8471 33.3333 41.3333C33.3333 38.6211 34.6829 36.2242 36.7472 34.7774C37.2317 34.4379 37.1904 33.6589 36.6116 33.5362C35.9843 33.4033 35.3336 33.3333 34.6667 33.3333H29.3333ZM41.3333 35.9999C42.0697 35.9999 42.6667 36.5969 42.6667 37.3333V39.9999H45.3333C46.0697 39.9999 46.6667 40.5969 46.6667 41.3333C46.6667 42.0697 46.0697 42.6666 45.3333 42.6666H42.6667V45.3333C42.6667 46.0695 42.0697 46.6666 41.3333 46.6666C40.5969 46.6666 40 46.0695 40 45.3333V42.6666H37.3333C36.5969 42.6666 36 42.0697 36 41.3333C36 40.5969 36.5969 39.9999 37.3333 39.9999H40V37.3333C40 36.5969 40.5969 35.9999 41.3333 35.9999Z" fill="url(#paint1_linear_5134_802)"/>
<defs>
<linearGradient id="paint0_linear_5134_802" x1="32.1333" y1="64" x2="32.1333" y2="-21.4857" gradientUnits="userSpaceOnUse">
<stop stop-color="#FBEB37"/>
<stop offset="0.631058" stop-color="#FEFACD"/>
<stop offset="1" stop-color="#FEFCE6"/>
</linearGradient>
<linearGradient id="paint1_linear_5134_802" x1="33.3889" y1="46.6666" x2="33.3889" y2="7.48563" gradientUnits="userSpaceOnUse">
<stop stop-color="#FBEB37"/>
<stop offset="0.631058" stop-color="#FEFACD"/>
<stop offset="1" stop-color="#FEFCE6"/>
</linearGradient>
</defs>
</svg>
