<svg width="64" height="64" viewBox="0 0 64 64" fill="none" xmlns="http://www.w3.org/2000/svg">
<path d="M39.2282 31.682C39.2282 34.3772 37.0433 36.562 34.3482 36.562H29.6488C26.9537 36.562 24.7688 34.3773 24.7687 31.682V31.6813C24.7687 30.3574 24.1594 29.1349 23.1852 28.2385C20.5798 25.8415 18.9542 22.3896 18.9854 18.5599C19.0417 11.6646 24.7499 5.84365 31.6429 5.65978C38.9916 5.46378 45.0119 11.3639 45.0119 18.6684C45.0119 22.4536 43.3933 25.8623 40.8138 28.2365C39.8388 29.134 39.2282 30.3569 39.2282 31.682Z" fill="#FFBA08"/>
<path d="M31.9987 36.9935C31.1721 36.9935 30.5024 36.3212 30.5024 35.4953V27.1976C30.5024 26.3718 31.1721 25.6995 31.9987 25.6995C32.8253 25.6995 33.4949 26.3717 33.4949 27.1976V35.4955C33.4949 36.3212 32.8254 36.9935 31.9987 36.9935Z" fill="#D36B24"/>
<path d="M16.3438 8.01122C15.9611 8.01122 15.5775 7.86509 15.2851 7.57272L11.7701 4.05772C11.1863 3.47309 11.1863 2.52309 11.7701 1.93847C12.3547 1.35384 13.3028 1.35384 13.8875 1.93847L17.4025 5.45347C17.9862 6.03809 17.9862 6.98809 17.4025 7.57272C17.1102 7.86509 16.7266 8.01122 16.3438 8.01122Z" fill="#D36B24"/>
<path d="M47.6564 8.01122C47.2736 8.01122 46.89 7.86509 46.5976 7.57272C46.0139 6.98809 46.0139 6.03809 46.5976 5.45347L50.1126 1.93847C50.6972 1.35384 51.6454 1.35384 52.23 1.93847C52.8137 2.52309 52.8137 3.47309 52.23 4.05772L48.715 7.57272C48.4229 7.86509 48.0391 8.01122 47.6564 8.01122Z" fill="#D36B24"/>
<path d="M36.1505 16.3713C35.6526 16.3713 35.1667 16.1228 34.8826 15.6698C34.1682 14.5334 32.9168 13.8538 31.5648 13.8867C31.5511 13.8903 31.5383 13.8903 31.5246 13.8903C30.7162 13.8903 30.0512 13.2436 30.0292 12.4324C30.0073 11.6067 30.6595 10.9197 31.4862 10.8978C33.8703 10.7918 36.1403 12.0488 37.4146 14.0767C37.8558 14.7746 37.6457 15.6989 36.946 16.1411C36.6985 16.2946 36.4226 16.3713 36.1505 16.3713Z" fill="#D36B24"/>
<path d="M59.3125 19.6939V59.9177C59.3125 60.1412 59.0891 60.2902 58.9027 60.2157L57.3324 59.9922C49.3559 58.8128 41.1992 59.5142 33.4961 61.9972C33.1485 62.1151 32.7948 62.2331 32.4471 62.3511L32 62.5001L30.5039 62.0407L29.6782 61.786C22.1985 59.4707 14.3399 58.8686 6.593 59.9922L5.09725 60.2157C4.91087 60.2902 4.6875 60.1412 4.6875 59.9177V19.6939C4.6875 18.9118 5.20888 18.2724 5.99713 18.1236C8.12638 17.7511 10.2616 17.6021 12.3909 17.6021C14.5944 17.6021 16.8291 17.7883 18.9953 18.1546C19.0016 18.1608 19.014 18.1608 19.0201 18.1608C19.0077 18.1981 19.0016 18.2353 18.9953 18.2663V18.2787C18.9768 18.3779 18.9767 18.4648 18.9767 18.5767C18.9644 19.5574 19.0697 20.5071 19.2747 21.4258C19.3678 21.8666 19.4857 22.3073 19.6349 22.7293C19.7712 23.1576 19.9329 23.5736 20.1189 23.9832C20.479 24.7964 20.926 25.5599 21.4412 26.2737C21.8323 26.8076 22.2481 27.3042 22.7076 27.7697C22.8565 27.9311 23.0116 28.0801 23.1731 28.2291C23.2971 28.3408 23.4089 28.4587 23.5205 28.5828C23.7069 28.7814 23.8745 29.0049 24.0173 29.2346C24.1849 29.4828 24.3276 29.7436 24.4391 30.0229C24.6565 30.5382 24.7808 31.0968 24.7808 31.6679C24.7808 32.8226 25.1841 33.8963 25.8546 34.7468C25.9104 34.8213 25.9725 34.8896 26.0346 34.9641C26.1401 35.0821 26.2456 35.1938 26.3635 35.2931C26.5375 35.4607 26.7175 35.6097 26.9096 35.7462V38.7009C26.9096 40.9852 28.4245 42.9219 30.4976 43.5613C30.51 43.5676 30.5161 43.5737 30.5225 43.5737C30.5907 43.5922 30.6589 43.6109 30.7274 43.6294C31.1369 43.7349 31.5591 43.7908 31.9998 43.7908C32.515 43.7908 33.0115 43.7164 33.477 43.5674C34.3956 43.2881 35.2029 42.7481 35.8172 42.0403C35.9476 41.8852 36.0719 41.7237 36.1898 41.5499C36.4629 41.1463 36.6801 40.6994 36.8229 40.2214C36.9718 39.7373 37.0526 39.2283 37.0526 38.7007V35.7459C37.1269 35.6963 37.1954 35.6467 37.27 35.5908C37.3319 35.5474 37.394 35.5039 37.45 35.4481C37.5119 35.4046 37.574 35.3549 37.6297 35.2929C37.6919 35.2432 37.7476 35.1874 37.7974 35.1316C37.9092 35.0261 38.0147 34.9081 38.1141 34.7839C38.1639 34.7219 38.2132 34.6598 38.2569 34.5978C38.3066 34.5296 38.3563 34.4613 38.4058 34.3868C38.4494 34.3247 38.4866 34.2688 38.5176 34.2068C38.561 34.1385 38.5983 34.0764 38.6355 34.0019C39.002 33.3006 39.219 32.4998 39.219 31.6681C39.219 31.4259 39.2439 31.1838 39.2875 30.9479C39.3805 30.3893 39.5979 29.8554 39.8895 29.3651C40.1441 28.9492 40.4669 28.5643 40.827 28.2292C43.4091 25.8704 45.023 22.4626 45.023 18.6884C45.023 18.5333 45.023 18.4029 44.9981 18.2602C44.9981 18.2291 44.9921 18.1918 44.9857 18.1608H44.9981C49.2936 17.4532 53.67 17.4159 58.0028 18.1236C58.7911 18.2724 59.3125 18.9118 59.3125 19.6939Z" fill="#CAE5FF"/>
<path d="M33.4962 43.791V61.9973C33.1485 62.1152 32.7948 62.2332 32.4472 62.3512L32 62.5002L30.5039 62.0408V43.791C30.5039 43.7167 30.5103 43.642 30.5227 43.5739V43.5677C30.6282 42.8475 31.2489 42.2952 31.9999 42.2952C32.7509 42.2952 33.3717 42.8475 33.4772 43.5677C33.4898 43.642 33.4962 43.7167 33.4962 43.791Z" fill="#9ABBFE"/>
<path d="M17.0354 32.4665H12.2242C11.3975 32.4665 10.7279 31.7942 10.7279 30.9683C10.7279 30.1425 11.3975 29.4702 12.2242 29.4702H17.0354C17.862 29.4702 18.5317 30.1425 18.5317 30.9683C18.5317 31.7942 17.8622 32.4665 17.0354 32.4665Z" fill="#9ABBFE"/>
<path d="M20.776 41.8605H12.2233C11.3967 41.8605 10.7271 41.1883 10.7271 40.3624C10.7271 39.5366 11.3967 38.8643 12.2233 38.8643H20.776C21.6027 38.8643 22.2723 39.5365 22.2723 40.3624C22.2723 41.1881 21.6028 41.8605 20.776 41.8605Z" fill="#9ABBFE"/>
<path d="M23.2104 50.6479H12.2233C11.3967 50.6479 10.7271 49.9756 10.7271 49.1497C10.7271 48.324 11.3967 47.6516 12.2233 47.6516H23.2104C24.0371 47.6516 24.7067 48.3239 24.7067 49.1497C24.7067 49.9755 24.0372 50.6479 23.2104 50.6479Z" fill="#9ABBFE"/>
<path d="M51.7781 33.0729H46.9678C46.1412 33.0729 45.4716 32.4007 45.4716 31.5748C45.4716 30.749 46.1412 30.0767 46.9678 30.0767H51.7781C52.6047 30.0767 53.2743 30.7489 53.2743 31.5748C53.2743 32.4005 52.6047 33.0729 51.7781 33.0729Z" fill="#9ABBFE"/>
<path d="M51.7771 41.8605H43.2252C42.3986 41.8605 41.7289 41.1883 41.7289 40.3624C41.7289 39.5366 42.3986 38.8643 43.2252 38.8643H51.7771C52.6037 38.8643 53.2733 39.5365 53.2733 40.3624C53.2733 41.1881 52.6038 41.8605 51.7771 41.8605Z" fill="#9ABBFE"/>
<path d="M50.7046 50.6369H40.7871C39.9605 50.6369 39.2909 49.9646 39.2909 49.1387C39.2909 48.3129 39.9605 47.6406 40.7871 47.6406H50.7046C51.5313 47.6406 52.2009 48.3129 52.2009 49.1387C52.2009 49.9646 51.5314 50.6369 50.7046 50.6369Z" fill="#9ABBFE"/>
<path d="M37.0473 35.756V38.7163C37.0473 41.5145 34.8027 43.7918 32.0037 43.7918C29.2062 43.7918 26.9298 41.5145 26.9298 38.7163V35.7234C27.7098 36.2763 28.6534 36.5693 29.6622 36.5693H34.3468C35.3556 36.5694 36.2658 36.2763 37.0473 35.756Z" fill="#ACBCC1"/>
</svg>
