<svg width="24" height="15" viewBox="0 0 24 15" fill="none" xmlns="http://www.w3.org/2000/svg">
<path d="M0.845894 2.91545L0.845893 2.91545C0.384663 2.45422 0.384766 1.70654 0.845821 1.24567L0.845893 1.2456C1.30674 0.784751 2.05426 0.784595 2.51558 1.24559C2.51561 1.24562 2.51564 1.24565 2.51568 1.24568L11.6464 10.3769L11.9999 10.7305L12.3535 10.3769L21.4843 1.24599C21.9455 0.784919 22.693 0.785042 23.1538 1.2459L23.154 1.24607C23.6152 1.70692 23.6153 2.45448 23.1539 2.91569L23.1538 2.91578L12.8347 13.2352C12.8346 13.2352 12.8346 13.2353 12.8345 13.2353C12.604 13.4656 12.3028 13.5806 11.9999 13.5806C11.6971 13.5806 11.3957 13.4653 11.1653 13.2349L0.845894 2.91545Z" fill="black" stroke="black"/>
</svg>
