<svg width="65" height="65" viewBox="0 0 65 65" fill="none" xmlns="http://www.w3.org/2000/svg">
<rect x="1.09229" y="1.17213" width="63" height="63" rx="31.5" stroke="url(#paint0_linear_9227_38212)"/>
<g clip-path="url(#clip0_9227_38212)">
<path d="M24.1548 20.5471H31.0298C31.5475 20.5471 31.9673 20.1274 31.9673 19.6096V17.9221C31.9673 17.2318 31.4077 16.6721 30.7173 16.6721H24.4673C23.7769 16.6721 23.2173 17.2318 23.2173 17.9221V19.6096C23.2173 20.1274 23.637 20.5471 24.1548 20.5471Z" fill="url(#paint1_linear_9227_38212)"/>
<path d="M48.043 45.4713L45.3913 42.8197C44.6591 42.0874 43.4719 42.0874 42.7396 42.8197C42.0074 43.5519 42.0074 44.7391 42.7396 45.4713L45.3913 48.123C46.1236 48.8553 47.3107 48.8553 48.0429 48.123C48.7752 47.3907 48.7752 46.2035 48.043 45.4713Z" fill="url(#paint2_linear_9227_38212)"/>
<path d="M41.9189 35.7486C41.9189 32.2968 39.1208 29.4986 35.6689 29.4986C32.2172 29.4986 29.4189 32.2968 29.4189 35.7486C29.4189 39.2004 32.2172 41.9986 35.6689 41.9986C37.0566 41.9986 38.3384 41.5461 39.3755 40.7809L40.8352 42.2406C40.9924 41.9739 41.1854 41.7226 41.4142 41.4938C41.6409 41.2671 41.8917 41.0734 42.1605 40.9143L40.7013 39.4551C41.4664 38.4181 41.9189 37.1363 41.9189 35.7486ZM35.448 38.1793C35.0819 38.5454 34.4883 38.5454 34.1222 38.1793L32.3544 36.4115C31.9883 36.0454 31.9883 35.4518 32.3544 35.0857C32.7205 34.7196 33.3141 34.7196 33.6802 35.0857L34.7851 36.1906L37.6577 33.3179C38.0238 32.9518 38.6174 32.9518 38.9835 33.3179C39.3496 33.6841 39.3496 34.2776 38.9835 34.6438L35.448 38.1793Z" fill="url(#paint3_linear_9227_38212)"/>
<path d="M34.8285 43.8304C34.8369 43.8807 34.8423 43.932 34.8423 43.9847C34.8423 44.5024 34.4225 44.9222 33.9048 44.9222H21.2798C20.762 44.9222 20.3423 44.5024 20.3423 43.9847C20.3423 43.4669 20.762 43.0472 21.2798 43.0472H32.101C31.1588 42.5848 30.3188 41.9453 29.6244 41.1722H21.2798C20.762 41.1722 20.3423 40.7524 20.3423 40.2347C20.3423 39.7169 20.762 39.2972 21.2798 39.2972H28.3607C28.0735 38.7083 27.8557 38.0798 27.7174 37.4222H21.2798C20.762 37.4222 20.3423 37.0024 20.3423 36.4847C20.3423 35.9669 20.762 35.5472 21.2798 35.5472H27.5463C27.5622 34.9008 27.6542 34.2731 27.8131 33.6722H21.2798C20.762 33.6722 20.3423 33.2524 20.3423 32.7347C20.3423 32.2169 20.762 31.7972 21.2798 31.7972H28.5716C28.9594 31.1034 29.4459 30.4721 30.0121 29.9222H21.2798C20.762 29.9222 20.3423 29.5024 20.3423 28.9847C20.3423 28.4669 20.762 28.0472 21.2798 28.0472H33.0782C33.8922 27.7727 34.7633 27.6237 35.6688 27.6237C36.6989 27.6237 37.6847 27.8168 38.5923 28.1681V21.4846C38.5923 19.9338 37.3306 18.6721 35.7798 18.6721H33.8423V19.6096C33.8423 21.1604 32.5806 22.4221 31.0298 22.4221H24.1548C22.604 22.4221 21.3423 21.1604 21.3423 19.6096V18.6721H19.4048C17.854 18.6721 16.5923 19.9338 16.5923 21.4846V45.8596C16.5923 47.4104 17.854 48.6721 19.4048 48.6721H35.7798C37.3306 48.6721 38.5923 47.4104 38.5923 45.8596V43.3292C37.6847 43.6804 36.6989 43.8736 35.6688 43.8736C35.3851 43.8736 35.1048 43.8589 34.8285 43.8304ZM21.2798 24.2971H33.9048C34.4225 24.2971 34.8423 24.7169 34.8423 25.2346C34.8423 25.7524 34.4225 26.1721 33.9048 26.1721H21.2798C20.762 26.1721 20.3423 25.7524 20.3423 25.2346C20.3423 24.7169 20.762 24.2971 21.2798 24.2971Z" fill="url(#paint4_linear_9227_38212)"/>
</g>
<defs>
<linearGradient id="paint0_linear_9227_38212" x1="32.7256" y1="64.6721" x2="32.7256" y2="-20.8136" gradientUnits="userSpaceOnUse">
<stop stop-color="#FBEB37"/>
<stop offset="0.631058" stop-color="#FEFACD"/>
<stop offset="1" stop-color="#FEFCE6"/>
</linearGradient>
<linearGradient id="paint1_linear_9227_38212" x1="27.6105" y1="20.5471" x2="27.6105" y2="15.3712" gradientUnits="userSpaceOnUse">
<stop stop-color="#FBEB37"/>
<stop offset="0.631058" stop-color="#FEFACD"/>
<stop offset="1" stop-color="#FEFCE6"/>
</linearGradient>
<linearGradient id="paint2_linear_9227_38212" x1="45.4046" y1="48.6722" x2="45.4046" y2="40.1214" gradientUnits="userSpaceOnUse">
<stop stop-color="#FBEB37"/>
<stop offset="0.631058" stop-color="#FEFACD"/>
<stop offset="1" stop-color="#FEFCE6"/>
</linearGradient>
<linearGradient id="paint3_linear_9227_38212" x1="35.8163" y1="42.2406" x2="35.8163" y2="25.2209" gradientUnits="userSpaceOnUse">
<stop stop-color="#FBEB37"/>
<stop offset="0.631058" stop-color="#FEFACD"/>
<stop offset="1" stop-color="#FEFCE6"/>
</linearGradient>
<linearGradient id="paint4_linear_9227_38212" x1="27.6381" y1="48.6721" x2="27.6381" y2="8.60071" gradientUnits="userSpaceOnUse">
<stop stop-color="#FBEB37"/>
<stop offset="0.631058" stop-color="#FEFACD"/>
<stop offset="1" stop-color="#FEFCE6"/>
</linearGradient>
<clipPath id="clip0_9227_38212">
<rect width="32" height="32" fill="white" transform="translate(16.5923 16.6721)"/>
</clipPath>
</defs>
</svg>
