<svg width="30" height="31" viewBox="0 0 30 31" fill="none" xmlns="http://www.w3.org/2000/svg">
<path d="M30 15.459C30 7.17471 23.2843 0.458984 15 0.458984C6.71573 0.458984 0 7.17471 0 15.459C0 23.7433 6.71573 30.459 15 30.459C23.2843 30.459 30 23.7433 30 15.459Z" fill="url(#paint0_linear_2906_55800)"/>
<path opacity="0.1" d="M26.2893 5.59038C24.1025 9.60485 21.0097 13.7456 17.1452 17.6101C13.2808 21.4746 9.13996 24.5614 5.13141 26.7483C4.8801 26.5299 4.63602 26.3022 4.39917 26.0654C2.96758 24.6816 1.8258 23.0266 1.04043 21.197C0.255058 19.3673 -0.158195 17.3996 -0.175232 15.4086C-0.192269 13.4176 0.18725 11.4431 0.941197 9.60033C1.69514 7.75752 2.80843 6.08325 4.21614 4.67515C5.62384 3.26705 7.2978 2.1533 9.1404 1.39884C10.983 0.644377 12.9574 0.264306 14.9484 0.280787C16.9394 0.297269 18.9072 0.709972 20.7371 1.49483C22.5669 2.27969 24.2222 3.42101 25.6064 4.85222C25.8433 5.08906 26.0709 5.33511 26.2893 5.59038Z" fill="white"/>
<path d="M18.5528 7.56396H11.4476C10.296 7.56396 9.19154 8.02144 8.37724 8.83574C7.56294 9.65004 7.10547 10.7545 7.10547 11.9061V19.0113C7.10547 20.1629 7.56294 21.2674 8.37724 22.0817C9.19154 22.896 10.296 23.3534 11.4476 23.3534H18.5528C19.7044 23.3534 20.8089 22.896 21.6232 22.0817C22.4375 21.2674 22.8949 20.1629 22.8949 19.0113V11.9061C22.8949 10.7545 22.4375 9.65004 21.6232 8.83574C20.8089 8.02144 19.7044 7.56396 18.5528 7.56396ZM21.5134 18.3876C21.5134 19.3382 21.1357 20.2499 20.4636 20.9221C19.7914 21.5942 18.8797 21.9719 17.9292 21.9719H12.0713C11.1207 21.9719 10.209 21.5942 9.53684 20.9221C8.86467 20.2499 8.48705 19.3382 8.48705 18.3876V12.5298C8.48705 11.5792 8.86467 10.6675 9.53684 9.99533C10.209 9.32316 11.1207 8.94554 12.0713 8.94554H17.9292C18.8797 8.94554 19.7914 9.32316 20.4636 9.99533C21.1357 10.6675 21.5134 11.5792 21.5134 12.5298V18.3876Z" fill="white"/>
<path d="M17.8796 12.6085L17.8421 12.571L17.8105 12.5394C17.0643 11.7958 16.0536 11.3784 15 11.3789C14.468 11.3825 13.9419 11.4909 13.4518 11.6979C12.9617 11.9049 12.5171 12.2065 12.1436 12.5853C11.7701 12.9642 11.4748 13.4129 11.2748 13.9059C11.0747 14.3989 10.9737 14.9265 10.9776 15.4585C10.9768 16.5382 11.4024 17.5746 12.1619 18.3421C12.5338 18.7186 12.9771 19.0172 13.4657 19.2205C13.9544 19.4238 14.4787 19.5278 15.0079 19.5263C15.8018 19.5096 16.5737 19.2623 17.2294 18.8145C17.8852 18.3667 18.3965 17.7378 18.7009 17.0044C19.0054 16.271 19.0898 15.4649 18.944 14.6843C18.7981 13.9038 18.4283 13.1825 17.8796 12.6085ZM15 18.1348C14.4692 18.1423 13.9481 17.9917 13.5031 17.7021C13.058 17.4126 12.7092 16.9973 12.5008 16.5089C12.2925 16.0206 12.2341 15.4814 12.3331 14.9598C12.4321 14.4382 12.684 13.9578 13.0568 13.5797C13.4295 13.2017 13.9063 12.943 14.4264 12.8367C14.9466 12.7304 15.4866 12.7811 15.9778 12.9825C16.4691 13.1839 16.8893 13.5269 17.1851 13.9678C17.4808 14.4087 17.6388 14.9276 17.6388 15.4585C17.6414 15.8075 17.5752 16.1537 17.444 16.4771C17.3128 16.8005 17.1191 17.0949 16.874 17.3435C16.629 17.592 16.3373 17.7899 16.0158 17.9256C15.6942 18.0614 15.3491 18.1325 15 18.1348Z" fill="white"/>
<path d="M20.2169 11.1917C20.218 11.3184 20.194 11.444 20.1465 11.5614C20.0989 11.6787 20.0287 11.7856 19.9397 11.8758C19.8508 11.966 19.745 12.0378 19.6283 12.087C19.5116 12.1362 19.3864 12.162 19.2597 12.1628C19.1341 12.1627 19.0098 12.1377 18.8939 12.0893C18.7781 12.0408 18.673 11.9699 18.5847 11.8805C18.451 11.7449 18.36 11.5729 18.3231 11.3861C18.2862 11.1992 18.305 11.0056 18.377 10.8293C18.4491 10.653 18.5714 10.5017 18.7286 10.3942C18.8859 10.2867 19.0712 10.2277 19.2617 10.2246C19.4846 10.2246 19.7004 10.3028 19.8716 10.4457L19.8913 10.4654C19.9231 10.4913 19.9522 10.5204 19.9781 10.5522L19.9998 10.5759C20.1411 10.75 20.2178 10.9675 20.2169 11.1917Z" fill="white"/>
<defs>
<linearGradient id="paint0_linear_2906_55800" x1="4.39342" y1="4.85241" x2="25.6066" y2="26.0656" gradientUnits="userSpaceOnUse">
<stop stop-color="#FAE100"/>
<stop offset="0.15" stop-color="#FCB720"/>
<stop offset="0.3" stop-color="#FF7950"/>
<stop offset="0.5" stop-color="#FF1C74"/>
<stop offset="1" stop-color="#6C1CD1"/>
</linearGradient>
</defs>
</svg>
