<svg width="24" height="24" viewBox="0 0 24 24" fill="none" xmlns="http://www.w3.org/2000/svg">
<g clip-path="url(#clip0_12121_87612)">
<path d="M19.377 18.8487C18.2827 18.5208 16.8585 18.2715 15.2761 18.1265C15.7029 17.5296 16.1318 16.8777 16.5392 16.2032C17.6902 14.2974 19.6208 10.6417 19.6208 7.56921C19.6208 3.79321 17.5466 1.92719 15.8068 1.02686C13.9715 0.0770874 12.1527 0.00311279 12.0762 0.000366211L12.0509 0C10.1483 0 8.24945 0.714478 6.84137 1.96014C5.7041 2.96631 4.34839 4.78638 4.34839 7.74243C4.34839 10.7494 6.55261 14.6428 7.50037 16.177C7.92059 16.8576 8.36151 17.5151 8.79858 18.1172C7.1933 18.2587 5.74622 18.507 4.63202 18.8368C2.83997 19.3669 1.96875 20.0715 1.96875 20.9907C1.96875 21.5746 2.33496 22.0838 3.05731 22.5042C3.58484 22.8115 4.31909 23.0821 5.23956 23.3088C7.04993 23.7545 9.4455 24 11.9846 24C14.5239 24 16.9193 23.7545 18.7297 23.3088C19.6501 23.0821 20.3844 22.8115 20.9121 22.5042C21.6345 22.0838 22.0007 21.5746 22.0007 20.9907C22.0005 20.0782 21.1423 19.3775 19.377 18.8487ZM5.78943 7.74243C5.78943 3.6568 9.00403 1.44891 12.0346 1.44104C12.1761 1.44855 13.701 1.54724 15.1848 2.32764C17.1722 3.3728 18.1798 5.13629 18.1798 7.56921C18.1798 9.48193 17.1956 12.251 15.4796 15.1666C13.9949 17.6887 12.5733 19.2858 12.0518 19.6282C11.5285 19.2836 10.0836 17.6746 8.54993 15.1307C6.79559 12.2208 5.78943 9.52771 5.78943 7.74243ZM18.0601 21.9857C16.3993 22.3553 14.2418 22.559 11.9846 22.559C9.72748 22.559 7.56976 22.3553 5.90918 21.9857C4.04828 21.5713 3.54694 21.1254 3.43304 20.9907C3.53375 20.8715 3.93842 20.5093 5.3324 20.1367C6.53522 19.8151 8.13483 19.5853 9.86829 19.4835C9.88275 19.5004 9.89722 19.5178 9.9115 19.5344C11.1085 20.9244 11.6646 21.1119 12.0509 21.1119C12.4395 21.1119 12.9952 20.9264 14.1716 19.55C14.1881 19.5306 14.2048 19.5104 14.2214 19.4908C15.9261 19.597 17.4961 19.8278 18.6744 20.1467C20.0383 20.5159 20.4366 20.8726 20.5364 20.9907C20.4223 21.1254 19.921 21.5713 18.0601 21.9857Z" fill="#2A948F"/>
<path d="M16.5005 7.80157C16.5005 5.31134 14.4745 3.28546 11.9844 3.28546C9.49438 3.28546 7.46851 5.31134 7.46851 7.80157C7.46851 10.2918 9.49438 12.3177 11.9844 12.3177C14.4747 12.3177 16.5005 10.2918 16.5005 7.80157ZM8.90955 7.80157C8.90955 6.10602 10.2889 4.7265 11.9844 4.7265C13.68 4.7265 15.0595 6.10602 15.0595 7.80157C15.0595 9.49731 13.68 10.8766 11.9844 10.8766C10.2889 10.8766 8.90955 9.49731 8.90955 7.80157Z" fill="#2A948F"/>
</g>
<defs>
<clipPath id="clip0_12121_87612">
<rect width="24" height="24" fill="white"/>
</clipPath>
</defs>
</svg>
