<svg width="40" height="40" viewBox="0 0 40 40" fill="none" xmlns="http://www.w3.org/2000/svg">
<path d="M20 38.75C30.3553 38.75 38.75 30.3553 38.75 20C38.75 9.64466 30.3553 1.25 20 1.25C9.64466 1.25 1.25 9.64466 1.25 20C1.25 30.3553 9.64466 38.75 20 38.75Z" fill="#FF5A54"/>
<path fill-rule="evenodd" clip-rule="evenodd" d="M38.6943 21.4526C37.9896 30.648 30.6523 37.9869 21.4576 38.694L9.94215 27.1785C9.64918 26.9367 9.46191 26.571 9.46191 26.1629V14.0048L12.7412 15.9012L9.79949 12.9594C10.0406 12.6902 10.3913 12.5201 10.7793 12.5201H29.2203C29.6082 12.5201 29.9589 12.6898 30.2 12.9585L38.6943 21.4526Z" fill="#DB3A3C"/>
<path fill-rule="evenodd" clip-rule="evenodd" d="M30.5376 14.0034L20.2749 19.9394C20.1127 20.0362 19.9044 20.0444 19.7313 19.9434L9.46191 14.0048V26.1629C9.46191 26.8884 10.0537 27.4798 10.7793 27.4798H29.2203C29.9457 27.4798 30.5376 26.8884 30.5376 26.1629V14.0034ZM10.7793 12.5201H29.2203C29.6082 12.5201 29.9589 12.6898 30.2 12.9585L20.0008 18.8586L9.79941 12.9594C10.0406 12.6902 10.3913 12.5201 10.7793 12.5201Z" fill="white"/>
</svg>
