<svg width="262" height="202" viewBox="0 0 262 202" fill="none" xmlns="http://www.w3.org/2000/svg">
<g opacity="0.2">
<path d="M58.8741 50.9255C55.5937 49.3832 50.1658 51.8924 48.4396 55.5644C45.1354 62.5702 55.8191 72.72 59.7046 71.6285C64.041 70.4124 64.8952 53.7611 58.8741 50.9255Z" stroke="#0F31AC" stroke-width="1.18642" stroke-miterlimit="10" stroke-linecap="round" stroke-dasharray="2.97 2.97"/>
<path d="M42.4672 66.8001C41.2986 66.1238 28.8946 58.946 21.8769 64.6289C16.9474 68.6153 16.8999 77.1397 20.6075 81.9269C27.9395 91.4123 50.6891 87.159 53.0501 80.3727C54.628 75.7991 47.1714 69.5229 42.4672 66.8001Z" stroke="#0F31AC" stroke-width="1.18642" stroke-miterlimit="10" stroke-linecap="round" stroke-dasharray="2.97 2.97"/>
<path d="M58.4237 183.929C88.6121 176.437 122.912 168.808 176.176 170.107C205.961 170.831 212.712 161.589 235.289 150.098C255.411 139.854 265.294 119.483 259.225 107.939C253.097 96.2825 234.435 100.927 219.148 83.576C212.189 75.6745 213.412 70.1339 209.395 61.3722C196.665 33.6278 148.959 11.9401 125.439 23.4187C94.3603 38.5811 120.93 104.095 86.1919 121.986C64.2194 133.305 47.6095 111.575 25.9159 128.168C15.1669 136.389 2.01547 147.915 1.00108 160.438C1.00108 160.438 -0.422625 191.048 58.4237 183.929Z" stroke="#0F31AC" stroke-width="1.18642" stroke-miterlimit="10" stroke-linecap="round" stroke-dasharray="2.97 2.97"/>
<path d="M225.205 149.837C225.205 149.837 219.736 157.086 214.267 167.034C209.337 176.004 205.588 188.093 204.757 198.184C202.438 198.071 199.887 197.97 197.129 197.875C180.798 197.294 157.218 196.932 130.998 196.932C101.189 196.932 74.7971 197.401 58.5787 198.124C58.0211 198.148 57.4754 198.172 56.9415 198.201C36.6953 173.109 -4.07008 129.395 33.4445 111.409C33.4445 111.409 36.191 110.573 40.3138 108.775C53.3526 103.08 80.1538 87.7696 77.1759 58.8863C77.1759 58.8863 76.1615 53.4999 76.1615 46.0018C76.1615 28.4665 81.7139 -0.594824 118.766 0.733965C141.207 1.54073 161.874 12.96 174.367 31.2368C186.623 49.1636 206.217 71.2191 222.18 58.6312C225.864 55.7245 230.734 54.6448 235.284 55.9262C246.768 59.1413 259.813 75.8461 225.205 149.837Z" fill="#BCD0DC"/>
</g>
<path opacity="0.15" d="M255.007 199.162C255.007 200.348 199.489 201.309 130.997 201.309C92.3551 201.309 57.8362 201.001 35.0926 200.521C29.8545 200.408 25.2394 200.289 21.3479 200.165C18.7793 200.082 16.5251 199.993 14.6091 199.904C9.6795 199.672 6.98633 199.423 6.98633 199.162C6.98633 198.83 11.3583 198.515 19.159 198.231C22.3564 198.118 26.1233 198.005 30.4062 197.904C52.9304 197.365 89.5966 197.015 130.997 197.015C167.414 197.015 200.171 197.288 222.855 197.721C242.834 198.1 255.007 198.604 255.007 199.162Z" fill="#040C2B"/>
<path d="M170.881 41.3864L162.76 56.6081C162.452 57.1835 161.734 57.403 161.158 57.0946L147.699 49.9108C147.123 49.6023 146.904 48.8845 147.212 48.3091L156.828 30.2815C157.136 29.7061 157.854 29.4866 158.43 29.7951L169.018 35.4484L169.054 35.5551L170.881 41.3864Z" fill="#E3E9F7"/>
<path opacity="0.1" d="M170.881 41.3859L167.885 39.7843C167.416 39.5351 167.239 38.9478 167.488 38.4792L169.048 35.5547L170.881 41.3859Z" fill="black"/>
<path d="M157.727 44.3579L157.982 43.8774C158.201 43.4621 158.48 43.1537 158.824 42.9401C159.162 42.7265 159.66 42.5782 160.313 42.4833C160.936 42.4003 161.375 42.2994 161.63 42.1749C161.885 42.0503 162.075 41.8605 162.211 41.6113C162.359 41.3325 162.371 41.0656 162.241 40.8045C162.11 40.5495 161.861 40.3181 161.493 40.1224C160.847 39.7783 159.999 39.5944 158.949 39.5766L159.002 37.7851C160.248 37.7614 161.41 38.0343 162.49 38.6097C163.38 39.0842 163.967 39.6715 164.264 40.3774C164.56 41.0834 164.519 41.7893 164.139 42.5011C163.884 42.9757 163.558 43.3257 163.16 43.557C162.763 43.7884 162.146 43.9545 161.31 44.0672C160.734 44.1503 160.349 44.2452 160.153 44.346C159.957 44.4469 159.791 44.6248 159.654 44.8858L159.447 45.2714L157.727 44.3579ZM156.338 46.4578C156.534 46.096 156.771 45.8765 157.068 45.7934C157.359 45.7104 157.691 45.7697 158.065 45.9655C158.421 46.1553 158.646 46.3985 158.741 46.6951C158.836 46.9917 158.788 47.3121 158.599 47.668C158.415 48.0061 158.177 48.2256 157.875 48.3146C157.572 48.4036 157.246 48.3561 156.89 48.1663C156.528 47.9705 156.297 47.7273 156.202 47.4307C156.107 47.1282 156.155 46.8019 156.338 46.4578Z" fill="#BCD0DC"/>
<path d="M60.2248 122.236L50.6208 136.971C50.2589 137.529 49.5115 137.689 48.9538 137.321L35.927 128.832C35.3693 128.47 35.2092 127.723 35.577 127.165L46.9488 109.719C47.3106 109.161 48.0581 109.001 48.6157 109.369L58.8664 116.048L58.8901 116.161L60.2248 122.236Z" fill="#E3E9F7"/>
<path opacity="0.1" d="M60.2252 122.236L57.3244 120.343C56.8676 120.047 56.7431 119.442 57.0397 118.985L58.8846 116.149L60.2252 122.236Z" fill="black"/>
<path d="M49.799 129.111L48.0609 127.978L48.1617 124.176L44.727 125.801L43.0957 124.739L47.8888 122.592L47.9244 117.662L49.6032 118.754L49.4668 122.343L52.6642 120.747L54.3014 121.815L49.7278 123.903L49.799 129.111Z" fill="#BCD0DC"/>
<path d="M227.151 75.5667L233.451 91.9867C233.688 92.6096 233.38 93.3037 232.757 93.5469L218.235 99.1171C217.613 99.3544 216.918 99.0459 216.675 98.423L209.219 78.9777C208.981 78.3548 209.29 77.6607 209.913 77.4175L221.338 73.0337L221.445 73.0812L227.151 75.5667Z" fill="#E3E9F7"/>
<path opacity="0.1" d="M227.152 75.5665L223.919 76.8063C223.415 77.0021 222.845 76.747 222.65 76.2428L221.439 73.0869L227.152 75.5665Z" fill="black"/>
<path d="M225.68 89.7147L224.452 90.1893L222.731 89.2402L222.091 91.0969L220.94 91.5418L221.889 88.9851L219.623 87.7927L220.809 87.3359L222.417 88.2495L222.981 86.5055L224.143 86.0605L223.253 88.5105L225.68 89.7147Z" fill="#BCD0DC"/>
<path d="M225.15 78.6811L213.926 82.9878C213.79 83.0411 213.642 82.97 213.588 82.8395C213.535 82.703 213.606 82.5547 213.736 82.5013L224.96 78.1946C225.096 78.1412 225.245 78.2124 225.298 78.3429C225.352 78.4794 225.286 78.6336 225.15 78.6811Z" fill="#BCD0DC"/>
<path d="M225.636 79.8974L214.413 84.2041C214.276 84.2575 214.128 84.1863 214.075 84.0558C214.021 83.9193 214.092 83.771 214.223 83.7176L225.446 79.4109C225.583 79.3575 225.731 79.4287 225.784 79.5592C225.838 79.6957 225.767 79.844 225.636 79.8974Z" fill="#BCD0DC"/>
<path d="M226.117 81.1073L214.893 85.414C214.757 85.4674 214.608 85.3962 214.555 85.2657C214.502 85.1293 214.573 84.981 214.703 84.9276L225.927 80.6209C226.063 80.5675 226.212 80.6387 226.265 80.7692C226.318 80.9056 226.253 81.0599 226.117 81.1073Z" fill="#BCD0DC"/>
<path d="M226.603 82.3231L215.379 86.6298C215.243 86.6832 215.095 86.612 215.041 86.4815C214.988 86.3451 215.059 86.1968 215.19 86.1434L226.413 81.8367C226.55 81.7833 226.698 81.8545 226.751 81.985C226.805 82.1215 226.739 82.2698 226.603 82.3231Z" fill="#BCD0DC"/>
<path d="M226.996 83.5751L215.772 87.8818C215.636 87.9352 215.487 87.864 215.434 87.7335C215.38 87.5971 215.452 87.4488 215.582 87.3954L226.806 83.0887C226.942 83.0353 227.09 83.1065 227.144 83.237C227.197 83.3734 227.132 83.5276 226.996 83.5751Z" fill="#BCD0DC"/>
<path d="M62.8199 165.331L69.9028 181.431C70.1697 182.042 69.8968 182.754 69.2858 183.021L55.0488 189.285C54.4378 189.552 53.726 189.279 53.459 188.668L45.071 169.608C44.8041 168.997 45.077 168.285 45.688 168.018L56.8878 163.089L56.9945 163.13L62.8199 165.331Z" fill="#E3E9F7"/>
<path opacity="0.1" d="M62.8214 165.331L59.6537 166.725C59.1554 166.945 58.58 166.719 58.3605 166.221L56.9961 163.125L62.8214 165.331Z" fill="black"/>
<path d="M62.0285 179.533L60.8242 180.061L59.0624 179.194L58.5107 181.081L57.3777 181.579L58.2023 178.981L55.8828 177.901L57.0455 177.391L58.6946 178.227L59.1692 176.46L60.3082 175.961L59.537 178.453L62.0285 179.533Z" fill="#BCD0DC"/>
<path d="M60.9668 168.535L49.9628 173.375C49.8323 173.435 49.6781 173.375 49.6188 173.245C49.5594 173.114 49.6188 172.96 49.7493 172.901L60.7533 168.06C60.8838 168.001 61.038 168.06 61.0974 168.191C61.1626 168.327 61.0974 168.481 60.9668 168.535Z" fill="#BCD0DC"/>
<path d="M61.5118 169.727L50.5077 174.567C50.3772 174.627 50.223 174.567 50.1637 174.437C50.1044 174.306 50.1637 174.152 50.2942 174.093L61.2982 169.252C61.4287 169.193 61.583 169.252 61.6423 169.383C61.7016 169.513 61.6423 169.667 61.5118 169.727Z" fill="#BCD0DC"/>
<path d="M62.0528 170.914L51.0488 175.754C50.9182 175.814 50.764 175.754 50.7047 175.624C50.6454 175.493 50.7047 175.339 50.8352 175.28L61.8392 170.439C61.9697 170.38 62.124 170.439 62.1833 170.57C62.2426 170.7 62.1833 170.854 62.0528 170.914Z" fill="#BCD0DC"/>
<path d="M62.5977 172.1L51.5937 176.941C51.4632 177 51.3089 176.941 51.2496 176.81C51.1903 176.68 51.2496 176.525 51.3801 176.466L62.3842 171.626C62.5147 171.566 62.6689 171.626 62.7282 171.756C62.7875 171.893 62.7282 172.047 62.5977 172.1Z" fill="#BCD0DC"/>
<path d="M63.0489 173.334L52.0448 178.175C51.9143 178.234 51.7601 178.175 51.7008 178.044C51.6415 177.914 51.7008 177.759 51.8313 177.7L62.8353 172.859C62.9658 172.8 63.1201 172.859 63.1794 172.99C63.2387 173.126 63.1794 173.281 63.0489 173.334Z" fill="#BCD0DC"/>
<path d="M111.996 49.1222L119.079 65.2219C119.346 65.8329 119.073 66.5448 118.462 66.8117L104.225 73.076C103.614 73.343 102.902 73.0701 102.635 72.4591L94.2468 53.3993C93.9799 52.7882 94.2528 52.0764 94.8638 51.8095L106.064 46.8799L106.17 46.9214L111.996 49.1222Z" fill="#E3E9F7"/>
<path opacity="0.1" d="M111.997 49.1223L108.829 50.5163C108.331 50.7358 107.756 50.5104 107.536 50.0121L106.172 46.9155L111.997 49.1223Z" fill="black"/>
<path d="M111.208 63.3231L110.004 63.851L108.242 62.9849L107.69 64.8714L106.557 65.3696L107.382 62.7714L105.062 61.6918L106.225 61.1816L107.874 62.018L108.349 60.2503L109.488 59.752L108.717 62.2434L111.208 63.3231Z" fill="#BCD0DC"/>
<path d="M110.147 52.3253L99.1425 57.1658C99.012 57.2252 98.8578 57.1658 98.7984 57.0353C98.7391 56.9048 98.7984 56.7506 98.9289 56.6913L109.933 51.8507C110.063 51.7914 110.218 51.8507 110.277 51.9812C110.342 52.1176 110.277 52.2719 110.147 52.3253Z" fill="#BCD0DC"/>
<path d="M110.691 53.5171L99.6874 58.3577C99.5569 58.4171 99.4027 58.3577 99.3434 58.2272C99.284 58.0967 99.3434 57.9425 99.4739 57.8832L110.478 53.0426C110.608 52.9833 110.763 53.0426 110.822 53.1731C110.881 53.3036 110.822 53.4578 110.691 53.5171Z" fill="#BCD0DC"/>
<path d="M111.232 54.7042L100.228 59.5447C100.098 59.6041 99.9437 59.5447 99.8844 59.4142C99.8251 59.2837 99.8844 59.1295 100.015 59.0702L111.019 54.2296C111.149 54.1703 111.304 54.2296 111.363 54.3601C111.422 54.4906 111.363 54.6448 111.232 54.7042Z" fill="#BCD0DC"/>
<path d="M111.777 55.8907L100.773 60.7313C100.643 60.7906 100.489 60.7313 100.429 60.6008C100.37 60.4703 100.429 60.316 100.56 60.2567L111.564 55.4161C111.694 55.3568 111.849 55.4161 111.908 55.5466C111.967 55.6831 111.908 55.8373 111.777 55.8907Z" fill="#BCD0DC"/>
<path d="M112.229 57.1246L101.225 61.9652C101.094 62.0245 100.94 61.9652 100.88 61.8347C100.821 61.7041 100.88 61.5499 101.011 61.4906L112.015 56.65C112.146 56.5907 112.3 56.65 112.359 56.7805C112.418 56.9169 112.359 57.0712 112.229 57.1246Z" fill="#BCD0DC"/>
<path d="M186.019 94.0518H75.9727V173.904H186.019V94.0518Z" fill="#E3E9F7"/>
<path d="M186.018 84.0264H76.0137V94.0753H186.018V84.0264Z" fill="#60D2CC"/>
<path d="M81.1067 90.1898C82.0404 90.1898 82.7973 89.4701 82.7973 88.5822C82.7973 87.6944 82.0404 86.9746 81.1067 86.9746C80.1729 86.9746 79.416 87.6944 79.416 88.5822C79.416 89.4701 80.1729 90.1898 81.1067 90.1898Z" fill="#E3E9F7"/>
<path d="M86.0344 90.1898C86.9681 90.1898 87.725 89.4701 87.725 88.5822C87.725 87.6944 86.9681 86.9746 86.0344 86.9746C85.1007 86.9746 84.3438 87.6944 84.3438 88.5822C84.3438 89.4701 85.1007 90.1898 86.0344 90.1898Z" fill="#E3E9F7"/>
<path d="M90.968 90.1898C91.9017 90.1898 92.6586 89.4701 92.6586 88.5822C92.6586 87.6944 91.9017 86.9746 90.968 86.9746C90.0343 86.9746 89.2773 87.6944 89.2773 88.5822C89.2773 89.4701 90.0343 90.1898 90.968 90.1898Z" fill="#E3E9F7"/>
<path d="M182.715 98.252H79.2891V169.698H182.715V98.252Z" fill="#F4F6FC"/>
<path d="M147.046 115.822V147.233C147.046 148.425 146.079 149.386 144.892 149.386H117.112C115.92 149.386 114.959 148.419 114.959 147.233V110.039C114.959 108.846 115.926 107.885 117.112 107.885H138.966L139.109 108.028L147.046 115.822Z" fill="#60D2CC"/>
<path opacity="0.15" d="M147.047 115.822H140.865C139.898 115.822 139.109 115.039 139.109 114.066V108.027L147.047 115.822Z" fill="black"/>
<path d="M138.706 133.945C138.463 133.945 138.25 133.791 138.173 133.56C137.971 132.961 137.306 132.368 136.28 131.887C134.88 131.234 133.006 130.879 131.001 130.879C128.996 130.879 127.121 131.24 125.721 131.887C124.695 132.362 124.03 132.955 123.829 133.56C123.752 133.791 123.538 133.945 123.295 133.945C122.909 133.945 122.636 133.572 122.761 133.204C123.063 132.296 123.918 131.484 125.252 130.867C126.801 130.149 128.841 129.751 131.007 129.751C133.172 129.751 135.212 130.149 136.761 130.867C138.089 131.484 138.95 132.296 139.252 133.204C139.365 133.566 139.092 133.945 138.706 133.945Z" fill="white"/>
<path d="M126.859 128.001C128.15 128.001 129.196 126.955 129.196 125.664C129.196 124.373 128.15 123.327 126.859 123.327C125.568 123.327 124.521 124.373 124.521 125.664C124.521 126.955 125.568 128.001 126.859 128.001Z" fill="white"/>
<path d="M135.142 128.001C136.433 128.001 137.479 126.955 137.479 125.664C137.479 124.373 136.433 123.327 135.142 123.327C133.851 123.327 132.805 124.373 132.805 125.664C132.805 126.955 133.851 128.001 135.142 128.001Z" fill="white"/>
<path d="M101.694 156.417V163.69H100.522L97.0952 158.736H97.0348V163.69H95.7173V156.417H96.8963L100.32 161.375H100.384V156.417H101.694ZM105.452 163.796C104.919 163.796 104.458 163.679 104.067 163.445C103.676 163.211 103.373 162.883 103.158 162.461C102.945 162.04 102.838 161.547 102.838 160.984C102.838 160.421 102.945 159.927 103.158 159.503C103.373 159.079 103.676 158.75 104.067 158.516C104.458 158.282 104.919 158.164 105.452 158.164C105.985 158.164 106.446 158.282 106.837 158.516C107.227 158.75 107.529 159.079 107.742 159.503C107.958 159.927 108.066 160.421 108.066 160.984C108.066 161.547 107.958 162.04 107.742 162.461C107.529 162.883 107.227 163.211 106.837 163.445C106.446 163.679 105.985 163.796 105.452 163.796ZM105.459 162.767C105.748 162.767 105.989 162.687 106.183 162.529C106.378 162.368 106.522 162.152 106.617 161.882C106.714 161.613 106.762 161.312 106.762 160.98C106.762 160.647 106.714 160.345 106.617 160.075C106.522 159.803 106.378 159.586 106.183 159.425C105.989 159.264 105.748 159.184 105.459 159.184C105.163 159.184 104.917 159.264 104.72 159.425C104.526 159.586 104.381 159.803 104.284 160.075C104.189 160.345 104.142 160.647 104.142 160.98C104.142 161.312 104.189 161.613 104.284 161.882C104.381 162.152 104.526 162.368 104.72 162.529C104.917 162.687 105.163 162.767 105.459 162.767ZM114.158 163.69H111.694V156.417H114.208C114.93 156.417 115.55 156.563 116.069 156.854C116.59 157.143 116.99 157.558 117.269 158.1C117.549 158.643 117.688 159.291 117.688 160.046C117.688 160.804 117.547 161.455 117.266 162C116.986 162.544 116.583 162.962 116.055 163.253C115.529 163.544 114.897 163.69 114.158 163.69ZM113.011 162.55H114.094C114.601 162.55 115.024 162.458 115.362 162.273C115.701 162.086 115.955 161.808 116.126 161.439C116.296 161.067 116.381 160.603 116.381 160.046C116.381 159.49 116.296 159.028 116.126 158.662C115.955 158.292 115.703 158.016 115.369 157.834C115.038 157.649 114.626 157.557 114.134 157.557H113.011V162.55ZM120.453 163.8C120.107 163.8 119.796 163.738 119.519 163.615C119.244 163.49 119.026 163.305 118.865 163.061C118.707 162.818 118.627 162.517 118.627 162.159C118.627 161.852 118.684 161.597 118.798 161.396C118.912 161.195 119.067 161.034 119.263 160.913C119.46 160.792 119.681 160.701 119.927 160.64C120.176 160.576 120.433 160.529 120.698 160.501C121.017 160.468 121.277 160.438 121.475 160.412C121.674 160.384 121.819 160.341 121.909 160.284C122.001 160.225 122.047 160.134 122.047 160.011V159.99C122.047 159.722 121.968 159.515 121.809 159.368C121.651 159.221 121.422 159.148 121.124 159.148C120.809 159.148 120.559 159.217 120.375 159.354C120.192 159.491 120.069 159.653 120.005 159.841L118.805 159.67C118.9 159.339 119.056 159.062 119.274 158.839C119.492 158.614 119.758 158.446 120.073 158.335C120.388 158.221 120.736 158.164 121.117 158.164C121.38 158.164 121.641 158.195 121.902 158.257C122.162 158.318 122.4 158.42 122.615 158.562C122.831 158.702 123.004 158.892 123.134 159.134C123.266 159.375 123.333 159.677 123.333 160.039V163.69H122.097V162.941H122.054C121.976 163.092 121.866 163.234 121.724 163.367C121.584 163.497 121.408 163.602 121.195 163.683C120.984 163.761 120.737 163.8 120.453 163.8ZM120.787 162.855C121.045 162.855 121.268 162.805 121.458 162.703C121.647 162.599 121.793 162.461 121.895 162.291C121.999 162.12 122.051 161.934 122.051 161.733V161.091C122.011 161.124 121.942 161.154 121.845 161.183C121.75 161.211 121.644 161.236 121.525 161.257C121.407 161.279 121.29 161.298 121.174 161.314C121.058 161.331 120.957 161.345 120.872 161.357C120.68 161.383 120.508 161.426 120.357 161.485C120.205 161.544 120.086 161.627 119.998 161.733C119.911 161.837 119.867 161.972 119.867 162.138C119.867 162.375 119.953 162.554 120.126 162.674C120.299 162.795 120.519 162.855 120.787 162.855ZM127.349 158.235V159.23H124.213V158.235H127.349ZM124.988 156.929H126.273V162.049C126.273 162.222 126.299 162.355 126.351 162.447C126.406 162.537 126.477 162.599 126.564 162.632C126.652 162.665 126.749 162.681 126.855 162.681C126.936 162.681 127.009 162.676 127.076 162.664C127.144 162.652 127.196 162.641 127.232 162.632L127.449 163.637C127.38 163.66 127.282 163.686 127.154 163.715C127.028 163.743 126.874 163.76 126.692 163.765C126.37 163.774 126.08 163.725 125.822 163.619C125.564 163.51 125.359 163.342 125.208 163.115C125.059 162.887 124.985 162.603 124.988 162.262V156.929ZM129.994 163.8C129.648 163.8 129.337 163.738 129.06 163.615C128.785 163.49 128.567 163.305 128.406 163.061C128.248 162.818 128.169 162.517 128.169 162.159C128.169 161.852 128.225 161.597 128.339 161.396C128.453 161.195 128.608 161.034 128.804 160.913C129.001 160.792 129.222 160.701 129.468 160.64C129.717 160.576 129.974 160.529 130.239 160.501C130.558 160.468 130.818 160.438 131.017 160.412C131.215 160.384 131.36 160.341 131.45 160.284C131.542 160.225 131.588 160.134 131.588 160.011V159.99C131.588 159.722 131.509 159.515 131.35 159.368C131.192 159.221 130.963 159.148 130.665 159.148C130.35 159.148 130.1 159.217 129.916 159.354C129.733 159.491 129.61 159.653 129.546 159.841L128.346 159.67C128.441 159.339 128.597 159.062 128.815 158.839C129.033 158.614 129.299 158.446 129.614 158.335C129.929 158.221 130.277 158.164 130.658 158.164C130.921 158.164 131.182 158.195 131.443 158.257C131.703 158.318 131.941 158.42 132.156 158.562C132.372 158.702 132.545 158.892 132.675 159.134C132.807 159.375 132.874 159.677 132.874 160.039V163.69H131.638V162.941H131.595C131.517 163.092 131.407 163.234 131.265 163.367C131.125 163.497 130.949 163.602 130.736 163.683C130.525 163.761 130.278 163.8 129.994 163.8ZM130.328 162.855C130.586 162.855 130.809 162.805 130.999 162.703C131.188 162.599 131.334 162.461 131.436 162.291C131.54 162.12 131.592 161.934 131.592 161.733V161.091C131.552 161.124 131.483 161.154 131.386 161.183C131.291 161.211 131.185 161.236 131.066 161.257C130.948 161.279 130.831 161.298 130.715 161.314C130.599 161.331 130.498 161.345 130.413 161.357C130.221 161.383 130.049 161.426 129.898 161.485C129.746 161.544 129.627 161.627 129.539 161.733C129.452 161.837 129.408 161.972 129.408 162.138C129.408 162.375 129.494 162.554 129.667 162.674C129.84 162.795 130.06 162.855 130.328 162.855ZM136.704 163.69V156.417H141.363V157.522H138.021V159.496H141.043V160.6H138.021V163.69H136.704ZM144.485 163.796C143.952 163.796 143.491 163.679 143.1 163.445C142.71 163.211 142.406 162.883 142.191 162.461C141.978 162.04 141.871 161.547 141.871 160.984C141.871 160.421 141.978 159.927 142.191 159.503C142.406 159.079 142.71 158.75 143.1 158.516C143.491 158.282 143.952 158.164 144.485 158.164C145.018 158.164 145.479 158.282 145.87 158.516C146.261 158.75 146.563 159.079 146.776 159.503C146.991 159.927 147.099 160.421 147.099 160.984C147.099 161.547 146.991 162.04 146.776 162.461C146.563 162.883 146.261 163.211 145.87 163.445C145.479 163.679 145.018 163.796 144.485 163.796ZM144.492 162.767C144.781 162.767 145.022 162.687 145.217 162.529C145.411 162.368 145.555 162.152 145.65 161.882C145.747 161.613 145.795 161.312 145.795 160.98C145.795 160.647 145.747 160.345 145.65 160.075C145.555 159.803 145.411 159.586 145.217 159.425C145.022 159.264 144.781 159.184 144.492 159.184C144.196 159.184 143.95 159.264 143.754 159.425C143.559 159.586 143.414 159.803 143.317 160.075C143.222 160.345 143.175 160.647 143.175 160.98C143.175 161.312 143.222 161.613 143.317 161.882C143.414 162.152 143.559 162.368 143.754 162.529C143.95 162.687 144.196 162.767 144.492 162.767ZM151.666 161.396V158.235H152.952V163.69H151.705V162.72H151.649C151.526 163.026 151.323 163.276 151.041 163.47C150.762 163.664 150.418 163.761 150.008 163.761C149.651 163.761 149.334 163.682 149.06 163.523C148.788 163.362 148.575 163.129 148.421 162.823C148.267 162.516 148.19 162.144 148.19 161.708V158.235H149.475V161.51C149.475 161.855 149.57 162.13 149.759 162.333C149.949 162.537 150.197 162.639 150.505 162.639C150.695 162.639 150.878 162.593 151.056 162.5C151.233 162.408 151.379 162.271 151.492 162.088C151.608 161.904 151.666 161.673 151.666 161.396ZM155.559 160.494V163.69H154.274V158.235H155.502V159.162H155.566C155.692 158.857 155.892 158.614 156.167 158.434C156.444 158.254 156.786 158.164 157.193 158.164C157.569 158.164 157.897 158.245 158.176 158.406C158.458 158.567 158.676 158.8 158.83 159.105C158.986 159.411 159.063 159.781 159.061 160.217V163.69H157.775V160.416C157.775 160.051 157.681 159.766 157.491 159.56C157.304 159.354 157.045 159.251 156.713 159.251C156.489 159.251 156.288 159.301 156.113 159.4C155.94 159.497 155.804 159.638 155.705 159.823C155.608 160.007 155.559 160.231 155.559 160.494ZM162.392 163.786C161.963 163.786 161.58 163.676 161.241 163.456C160.903 163.235 160.635 162.916 160.439 162.497C160.242 162.078 160.144 161.569 160.144 160.97C160.144 160.364 160.243 159.852 160.442 159.436C160.643 159.017 160.914 158.701 161.255 158.488C161.596 158.272 161.976 158.164 162.395 158.164C162.715 158.164 162.978 158.219 163.184 158.328C163.39 158.434 163.553 158.563 163.674 158.715C163.794 158.864 163.888 159.005 163.954 159.137H164.007V156.417H165.297V163.69H164.032V162.831H163.954C163.888 162.963 163.792 163.104 163.667 163.253C163.541 163.4 163.375 163.525 163.169 163.63C162.963 163.734 162.704 163.786 162.392 163.786ZM162.75 162.731C163.023 162.731 163.255 162.658 163.446 162.511C163.638 162.362 163.784 162.155 163.883 161.89C163.983 161.624 164.032 161.315 164.032 160.963C164.032 160.61 163.983 160.303 163.883 160.043C163.786 159.783 163.642 159.58 163.45 159.436C163.261 159.291 163.027 159.219 162.75 159.219C162.464 159.219 162.225 159.294 162.033 159.443C161.841 159.592 161.697 159.798 161.6 160.061C161.503 160.323 161.454 160.624 161.454 160.963C161.454 161.304 161.503 161.608 161.6 161.875C161.699 162.14 161.845 162.35 162.037 162.504C162.231 162.655 162.469 162.731 162.75 162.731Z" fill="#16181D"/>
<path d="M201.111 138.597H204.45C206.966 138.597 209.006 136.556 209.006 134.041C209.006 131.526 206.966 129.485 204.45 129.485H201.111C198.595 129.485 196.555 131.526 196.555 134.041C196.549 136.556 198.589 138.597 201.111 138.597Z" fill="white"/>
<path d="M201.332 137.861H204.221C204.221 137.861 203.96 140.187 201.332 141.343C201.332 141.343 202.714 139.303 201.332 137.861Z" fill="white"/>
<path d="M202.063 134.942V134.663C202.063 134.426 202.117 134.218 202.217 134.04C202.318 133.863 202.508 133.679 202.775 133.477C203.036 133.293 203.208 133.139 203.291 133.02C203.374 132.902 203.416 132.771 203.416 132.629C203.416 132.468 203.356 132.344 203.238 132.261C203.119 132.178 202.953 132.136 202.739 132.136C202.366 132.136 201.939 132.261 201.464 132.504L201.055 131.685C201.606 131.377 202.2 131.217 202.817 131.217C203.327 131.217 203.736 131.341 204.039 131.585C204.341 131.828 204.489 132.16 204.489 132.569C204.489 132.842 204.43 133.079 204.305 133.275C204.181 133.477 203.944 133.696 203.6 133.946C203.362 134.124 203.208 134.254 203.149 134.349C203.083 134.444 203.054 134.563 203.054 134.711V134.936H202.063V134.942ZM201.945 136.218C201.945 136.01 201.998 135.85 202.111 135.743C202.223 135.636 202.383 135.583 202.597 135.583C202.805 135.583 202.965 135.636 203.078 135.749C203.19 135.856 203.25 136.016 203.25 136.218C203.25 136.413 203.19 136.568 203.078 136.68C202.965 136.793 202.805 136.852 202.603 136.852C202.395 136.852 202.235 136.799 202.117 136.686C202.004 136.579 201.945 136.419 201.945 136.218Z" fill="#ACBCF8"/>
<path opacity="0.67" d="M192.064 195.764L193.624 196.369L193.173 198.576L190.504 197.74L192.064 195.764Z" fill="#050505"/>
<path d="M170.281 190.876C170.281 190.876 166.111 190.384 165.203 192.626C165.203 192.626 165.138 198.214 167.742 198.594C167.742 198.594 169.955 198.819 171.39 197.834L179.725 196.885L185.39 196.505L170.281 190.876Z" fill="#040C2B"/>
<path d="M195.32 193.557C195.32 193.557 197.509 197.075 196.21 198.475C196.008 198.694 196.287 198.955 196.708 198.955L205.506 198.937C205.506 198.937 210.518 199.851 211.497 196.013C211.497 196.013 212.084 191.944 205.701 191.261C199.319 190.579 205.636 191.036 205.636 191.036C205.636 191.036 198.215 191.564 195.32 193.557Z" fill="#040C2B"/>
<path d="M198.802 193.729L198.778 193.954L198.28 198.593L189.002 197.775L192.057 193.777L192.099 193.723C198.802 193.877 198.802 193.729 198.802 193.729Z" fill="#DE995F"/>
<path opacity="0.38" d="M198.801 193.729L198.778 193.955L193.884 194.091L192.057 193.783L192.098 193.729C198.801 193.878 198.801 193.729 198.801 193.729Z" fill="#050505"/>
<path d="M213.045 185.721L202.237 187.821L188.059 190.574L176.8 187.952L159.016 183.811C158.203 177.707 170.998 181.219 170.998 181.219L179.327 182.156L184.215 182.702L195.284 184.22L198.802 182.826L202.972 181.177C214.202 180.216 213.045 185.721 213.045 185.721Z" fill="#2E4757"/>
<path opacity="0.3" d="M202.236 187.821L188.058 190.573L176.793 187.951L173.732 186.124L179.326 182.156L184.214 182.707L195.284 184.226L198.801 182.832L202.236 187.821Z" fill="black"/>
<path d="M172.232 192.662L187.537 188.669C187.537 188.669 198.476 184.6 200.368 184.831C200.368 184.831 213.911 177.873 213.004 186.391C213.004 186.391 214.564 193.083 190.408 194.109L172.232 192.662Z" fill="#2E4757"/>
<path opacity="0.13" d="M182.75 189.909L184.441 189.417C185.722 190.271 188.13 190.983 189.714 191.694C191.506 192.507 193.689 193.255 195.771 193.747C194.401 193.913 193.036 194.079 191.666 194.239L182.75 189.909Z" fill="black"/>
<path d="M194.602 193.86C194.602 193.86 190.141 197.414 193.137 198.594C193.137 198.594 175.827 196.648 161.976 188.913C160.926 188.326 160.184 187.578 159.834 186.754C158.565 183.77 156.815 176.983 170.476 182.779C170.476 182.779 181.089 186.386 184.589 189.488C185.259 190.082 186.054 190.627 186.974 191.09C189.163 192.193 192.87 193.914 194.602 193.86Z" fill="#2E4757"/>
<path d="M184.019 154.412L192.092 154.423L194.697 159.329C194.697 159.329 189.619 167.005 182.322 160.166C182.649 159.062 183.722 157.449 184.049 156.345C184.576 155.201 184.511 155.278 184.019 154.412Z" fill="#CC8B5B"/>
<path d="M204.971 162.432L203.167 176.888L175.358 176.621C175.358 176.621 177.268 169.26 176.888 168.061C176.865 167.99 176.835 167.937 176.793 167.913L169.111 167.646C169.111 167.646 169.171 166.59 169.42 165.202C169.847 162.853 170.82 159.543 172.985 158.736C173.341 158.606 174.385 158.184 174.385 158.184C174.385 158.184 183.859 155.693 184.054 156.34C184.054 156.34 183.532 163.903 193.824 157.633C193.818 157.639 205.736 160.593 204.971 162.432Z" fill="white"/>
<path d="M199.324 177.612L199.894 182.405L206.312 180.46C207.766 180.021 208.762 179.184 208.946 178.235C209.106 177.387 209.005 176.183 208.246 174.504L206.811 168.156C206.811 168.156 207.493 163.767 204.171 161.293C204.171 161.293 202.967 168.572 200.819 169.788L200.362 175.868L199.324 177.612Z" fill="white"/>
<path opacity="0.1" d="M181.32 159.899L176.888 168.067C176.865 167.996 176.835 167.943 176.793 167.919L169.111 167.652C169.111 167.652 169.171 166.596 169.42 165.208L177.22 157.923C177.215 157.923 180.537 159.857 181.32 159.899Z" fill="black"/>
<path d="M182.761 155.04C182.571 156.31 182.346 156.701 181.676 158.718L180.632 160.693L177.701 158.718L178.484 157.917L178.093 154.304L179.083 151.884C179.433 151.024 180.305 150.478 181.231 150.573C182.269 150.692 183.277 151.599 182.761 155.04Z" fill="#DE995F"/>
<path opacity="0.13" d="M174.902 167.308L176.937 168.63L176.302 172.688L181.677 160.622L179.755 160.1L174.902 167.308Z" fill="black"/>
<path d="M177.573 157.923C177.573 157.923 180.895 159.863 181.678 159.899L175.425 171.413C175.425 171.413 171.409 176.39 167.28 172.647C164.741 170.339 165.56 167.266 169.274 165.594C169.327 165.57 169.38 165.546 169.434 165.522L177.573 157.923Z" fill="white"/>
<path opacity="0.13" d="M183.99 156.227C183.99 156.227 187.858 161.803 192.924 155.978L191.352 153.682L184.939 154.412L183.99 156.227Z" fill="black"/>
<path d="M182.33 146.516C182.33 146.516 189.751 142.447 192.747 146.024C192.747 146.024 198.934 152.294 189.294 157.924C189.294 157.924 183.048 160.694 182.33 146.516Z" fill="#DE995F"/>
<path d="M183.135 152.442L181.201 149.203C180.756 148.462 180.554 147.673 180.614 146.89C180.792 144.428 182.298 139.7 191.511 141.764C191.511 141.764 199.584 145.3 195.094 149.82L193.599 153.089C193.599 153.089 193.795 147.198 191.517 146.896C191.517 146.896 186.308 148.035 182.921 147.957C182.915 147.963 182.814 152.009 183.135 152.442Z" fill="black"/>
<path d="M184.93 151.76C185.899 151.76 186.686 151.301 186.686 150.734C186.686 150.167 185.899 149.708 184.93 149.708C183.96 149.708 183.174 150.167 183.174 150.734C183.174 151.301 183.96 151.76 184.93 151.76Z" stroke="black" stroke-width="0.122397" stroke-miterlimit="10"/>
<path d="M190.27 151.612C191.239 151.612 192.025 151.152 192.025 150.585C192.025 150.019 191.239 149.559 190.27 149.559C189.3 149.559 188.514 150.019 188.514 150.585C188.514 151.152 189.3 151.612 190.27 151.612Z" stroke="black" stroke-width="0.122397" stroke-miterlimit="10"/>
<path d="M186.668 150.585C186.668 150.585 187.469 151.119 188.513 150.585" stroke="black" stroke-width="0.122397" stroke-miterlimit="10"/>
<path d="M183.175 150.734L182.291 150.146" stroke="black" stroke-width="0.122397" stroke-miterlimit="10"/>
<path d="M192.031 150.585L194.244 150.318" stroke="black" stroke-width="0.122397" stroke-miterlimit="10"/>
<path opacity="0.13" d="M199.875 177.44C199.875 177.44 201.827 175.921 204.176 175.767C204.176 175.767 203.654 175.423 202.224 175.767C202.224 175.767 203.529 174.966 205.024 175.274C205.024 175.274 201.898 174.094 199.875 177.44Z" fill="black"/>
<path d="M174.042 172.736L200.137 172.409C200.511 172.403 200.819 172.706 200.819 173.086V183.941C200.819 184.309 200.523 184.612 200.149 184.618L174.576 184.902C174.214 184.908 173.911 184.623 173.893 184.262L173.371 173.447C173.36 173.062 173.662 172.741 174.042 172.736Z" fill="#2A948F"/>
<path opacity="0.13" d="M174.545 184.279C174.545 184.279 170.185 181.557 162.236 180.744C162.236 180.744 166.211 180.477 174.937 183.479L174.545 184.279Z" fill="black"/>
<path opacity="0.13" d="M200.854 184.624C200.854 184.624 208.738 180.59 211.876 182.749C211.876 182.749 210.227 180.365 199.875 184.398L200.854 184.624Z" fill="black"/>
<path opacity="0.13" d="M200.789 169.764C200.789 169.764 205.155 166.495 205.025 164.823C205.025 164.823 203.85 166.306 203.53 166.573C203.53 166.573 205.155 164.556 204.508 163.761C204.508 163.761 203.601 166.294 202.913 166.335L200.789 169.764Z" fill="black"/>
<path opacity="0.13" d="M200.76 169.74C200.76 169.74 204.016 163.351 203.364 163.013C203.364 163.013 203.233 164.271 200.76 169.74Z" fill="black"/>
</svg>
