<svg width="64" height="65" viewBox="0 0 64 65" fill="none" xmlns="http://www.w3.org/2000/svg">
<rect x="0.5" y="0.994141" width="63" height="63" rx="31.5" stroke="#2A948F"/>
<path d="M42.9089 22.0697C41.1214 21.8795 39.3622 21.4818 37.6667 20.8848C36.1107 20.3351 34.6183 19.6201 33.2148 18.752C32.8486 18.5297 32.4284 18.4122 32 18.4122C31.5716 18.4122 31.1514 18.5297 30.7852 18.752L30.7838 18.7533C29.3807 19.6207 27.8887 20.3352 26.3333 20.8848C24.6382 21.4817 22.8795 21.8794 21.0925 22.0697C20.5184 22.1285 19.9866 22.3982 19.6001 22.8266C19.2135 23.255 18.9997 23.8117 19 24.3887V31.3158C19.0009 33.8716 19.6849 36.3807 20.9811 38.5835C22.2773 40.7862 24.1386 42.6025 26.3724 43.8444L30.8659 46.3418C31.2119 46.5364 31.6023 46.6386 31.9993 46.6386C32.3964 46.6386 32.7867 46.5364 33.1328 46.3418L37.6276 43.8444C39.8614 42.6025 41.7227 40.7862 43.0189 38.5835C44.3151 36.3807 44.9991 33.8716 45 31.3158V24.3887C45.0004 23.8118 44.7868 23.2554 44.4005 22.827C44.0142 22.3986 43.4827 22.1287 42.9089 22.0697ZM37.306 30.0723L32.306 35.4057C32.0686 35.6594 31.7413 35.8104 31.3942 35.8262C31.047 35.842 30.7074 35.7215 30.4479 35.4903L27.4479 32.8236C27.1837 32.5888 27.0237 32.2587 27.0029 31.9058C26.9822 31.553 27.1024 31.2063 27.3372 30.9421C27.5721 30.678 27.9022 30.5179 28.2551 30.4971C28.6079 30.4764 28.9546 30.5966 29.2187 30.8315L31.2487 32.6348L35.3607 28.2494C35.4855 28.1165 35.6361 28.0105 35.8034 27.9379C35.9707 27.8654 36.151 27.8278 36.3333 27.8275C36.5933 27.8276 36.8475 27.9037 37.0647 28.0464C37.282 28.1892 37.4528 28.3923 37.5561 28.6308C37.6595 28.8693 37.6909 29.1328 37.6464 29.3889C37.602 29.645 37.4837 29.8826 37.306 30.0723Z" fill="#2A948F"/>
</svg>
