<svg width="80" height="81" viewBox="0 0 80 81" fill="none" xmlns="http://www.w3.org/2000/svg">
<path fill-rule="evenodd" clip-rule="evenodd" d="M68.6953 64.2022C62.5209 71.5463 55.3041 78.8301 45.7486 79.698C35.5285 80.6262 25.875 75.6184 18.2173 68.7868C10.0401 61.4916 3.69245 52.1649 2.65808 41.2555C1.52282 29.2818 3.35005 15.8212 12.4498 7.95661C21.2409 0.35878 34.2633 2.25378 45.7486 4.0138C55.2001 5.46216 63.9309 9.58442 70.198 16.806C76.0317 23.5281 78.3502 32.3595 78.0682 41.2555C77.796 49.8404 74.2227 57.6276 68.6953 64.2022Z" stroke="#424957" stroke-width="0.8"/>
<path fill-rule="evenodd" clip-rule="evenodd" d="M37.0995 0.993087C46.6682 0.165952 56.932 0.118597 64.3098 6.26166C72.2008 12.832 75.4892 23.1991 76.0738 33.4446C76.6982 44.3852 74.5895 55.4687 67.5998 63.9142C59.9282 73.1836 49.1071 81.4097 37.0995 80.5363C25.4991 79.6926 17.6229 69.1443 10.7391 59.7785C5.07435 52.0711 1.81237 42.9826 2.48795 33.4446C3.1168 24.5664 7.72675 16.6822 14.2231 10.5912C20.4924 4.71322 28.5336 1.73354 37.0995 0.993087Z" fill="#E6F5DE" fill-opacity="0.4"/>
<path d="M50.5625 30.9873C48.667 30.9873 47.125 32.5293 47.125 34.4248C47.125 35.1827 47.3792 35.8776 47.7963 36.4465L45.4463 39.5791L42.3752 33.5193C43.0272 32.8934 43.4375 32.0179 43.4375 31.0449C43.4375 29.1494 41.8955 27.6074 40 27.6074C38.1045 27.6074 36.5625 29.1494 36.5625 31.0449C36.5625 32.0179 36.9728 32.8934 37.6248 33.5193L34.5537 39.5791L32.2037 36.4465C32.6208 35.8776 32.875 35.1827 32.875 34.4248C32.875 32.5293 31.333 30.9873 29.4375 30.9873C27.542 30.9873 26 32.5293 26 34.4248C26 36.1143 27.2273 37.5151 28.8358 37.8015L30.001 47.5117C30.061 48.0146 30.4873 48.3926 30.9937 48.3926H49.0063C49.5127 48.3926 49.939 48.0146 49.999 47.5117L51.1642 37.8015C52.7727 37.5151 54 36.1143 54 34.4248C54 32.5293 52.458 30.9873 50.5625 30.9873Z" fill="#2A948F"/>
<path d="M49.0063 52.3926C49.5586 52.3926 50.0063 51.9453 50.0063 51.3926C50.0063 50.8398 49.5586 50.3926 49.0063 50.3926H30.9937C30.4414 50.3926 29.9937 50.8398 29.9937 51.3926C29.9937 51.9453 30.4414 52.3926 30.9937 52.3926H49.0063Z" fill="#2A948F"/>
</svg>
