<svg width="80" height="81" viewBox="0 0 80 81" fill="none" xmlns="http://www.w3.org/2000/svg">
<path fill-rule="evenodd" clip-rule="evenodd" d="M68.6953 64.2022C62.5209 71.5463 55.3041 78.8301 45.7486 79.698C35.5285 80.6262 25.875 75.6184 18.2173 68.7868C10.0401 61.4916 3.69245 52.1649 2.65808 41.2555C1.52282 29.2818 3.35005 15.8212 12.4498 7.95661C21.2409 0.35878 34.2633 2.25378 45.7486 4.0138C55.2001 5.46216 63.9309 9.58442 70.198 16.806C76.0317 23.5281 78.3502 32.3595 78.0682 41.2555C77.796 49.8404 74.2227 57.6276 68.6953 64.2022Z" stroke="#424957" stroke-width="0.8"/>
<path fill-rule="evenodd" clip-rule="evenodd" d="M37.0995 0.993087C46.6682 0.165952 56.932 0.118597 64.3098 6.26166C72.2008 12.832 75.4892 23.1991 76.0738 33.4446C76.6982 44.3852 74.5895 55.4687 67.5998 63.9142C59.9282 73.1836 49.1071 81.4097 37.0995 80.5363C25.4991 79.6926 17.6229 69.1443 10.7391 59.7785C5.07435 52.0711 1.81237 42.9826 2.48795 33.4446C3.1168 24.5664 7.72675 16.6822 14.2231 10.5912C20.4924 4.71322 28.5336 1.73354 37.0995 0.993087Z" fill="#E6F5DE" fill-opacity="0.4"/>
<path fill-rule="evenodd" clip-rule="evenodd" d="M41.8601 25.7659C40.6885 25.1891 39.3114 25.1891 38.1398 25.7659L26.4705 31.5112C24.9543 32.2577 24.9542 34.4088 26.4705 35.1553L38.1398 40.9006C39.3114 41.4775 40.6885 41.4775 41.8601 40.9007L53.5294 35.1553C55.0457 34.4088 55.0457 32.2577 53.5294 31.5112L41.8601 25.7659ZM26.5374 38.1449C26.7231 38.0534 26.9407 38.0534 27.1264 38.1449L38.1398 43.5673C39.3114 44.1441 40.6885 44.1441 41.8601 43.5673L52.8736 38.1449C53.0592 38.0534 53.2768 38.0534 53.4625 38.1449L53.5294 38.1778C55.0457 38.9243 55.0457 41.0754 53.5294 41.8219L41.8601 47.5673C40.6885 48.1441 39.3114 48.1441 38.1398 47.5673L26.4705 41.8219C24.9542 41.0754 24.9543 38.9243 26.4705 38.1778L26.5374 38.1449ZM27.1264 44.8117C26.9407 44.7202 26.7231 44.7202 26.5374 44.8117L26.4705 44.8446C24.9543 45.5911 24.9542 47.7422 26.4705 48.4887L38.1398 54.2341C39.3114 54.8109 40.6885 54.8109 41.8601 54.2341L53.5294 48.4887C55.0457 47.7422 55.0457 45.5911 53.5294 44.8446L53.4625 44.8117C53.2768 44.7202 53.0592 44.7202 52.8736 44.8117L41.8601 50.2341C40.6885 50.8109 39.3114 50.8109 38.1398 50.2341L27.1264 44.8117Z" fill="#2A948F"/>
</svg>
