<svg width="80" height="81" viewBox="0 0 80 81" fill="none" xmlns="http://www.w3.org/2000/svg">
<path fill-rule="evenodd" clip-rule="evenodd" d="M68.6953 64.2022C62.5209 71.5463 55.3041 78.8301 45.7486 79.698C35.5285 80.6262 25.875 75.6184 18.2173 68.7868C10.0401 61.4916 3.69245 52.1649 2.65808 41.2555C1.52282 29.2818 3.35005 15.8212 12.4498 7.95661C21.2409 0.35878 34.2633 2.25378 45.7486 4.0138C55.2001 5.46216 63.9309 9.58442 70.198 16.806C76.0317 23.5281 78.3502 32.3595 78.0682 41.2555C77.796 49.8404 74.2227 57.6276 68.6953 64.2022Z" stroke="#424957" stroke-width="0.8"/>
<path fill-rule="evenodd" clip-rule="evenodd" d="M37.0995 0.993087C46.6682 0.165952 56.932 0.118597 64.3098 6.26166C72.2008 12.832 75.4892 23.1991 76.0738 33.4446C76.6982 44.3852 74.5895 55.4687 67.5998 63.9142C59.9282 73.1836 49.1071 81.4097 37.0995 80.5363C25.4991 79.6926 17.6229 69.1443 10.7391 59.7785C5.07435 52.0711 1.81237 42.9826 2.48795 33.4446C3.1168 24.5664 7.72675 16.6822 14.2231 10.5912C20.4924 4.71322 28.5336 1.73354 37.0995 0.993087Z" fill="#E6F5DE" fill-opacity="0.4"/>
<path d="M45.64 26H28.35C27.9525 26.0012 27.5717 26.1596 27.2906 26.4406C27.0095 26.7217 26.8511 27.1025 26.85 27.5V52.5C26.8511 52.8975 27.0095 53.2783 27.2906 53.5594C27.5717 53.8404 27.9525 53.9988 28.35 54H45.64C46.0374 53.9988 46.4183 53.8404 46.6993 53.5594C46.9804 53.2783 47.1388 52.8975 47.14 52.5V27.5C47.1388 27.1025 46.9804 26.7217 46.6994 26.4406C46.4183 26.1596 46.0374 26.0012 45.64 26ZM33.85 48.02L31.18 50.685C31.1343 50.7324 31.0796 50.7702 31.019 50.7959C30.9584 50.8217 30.8933 50.835 30.8275 50.835C30.7617 50.835 30.6965 50.8217 30.6359 50.7959C30.5754 50.7702 30.5206 50.7324 30.475 50.685L29.14 49.355C29.0465 49.2607 28.9941 49.1332 28.9944 49.0004C28.9946 48.8676 29.0475 48.7403 29.1414 48.6464C29.2353 48.5525 29.3626 48.4997 29.4954 48.4994C29.6282 48.4991 29.7557 48.5515 29.85 48.645L30.83 49.625L33.14 47.315C33.2341 47.224 33.3602 47.1735 33.4911 47.1744C33.6221 47.1752 33.7474 47.2274 33.8404 47.3197C33.9333 47.4119 33.9863 47.5369 33.9881 47.6679C33.9899 47.7988 33.9403 47.9252 33.85 48.02ZM33.85 42.02L31.18 44.685C31.1343 44.7324 31.0796 44.7702 31.019 44.7959C30.9584 44.8217 30.8933 44.835 30.8275 44.835C30.7617 44.835 30.6965 44.8217 30.6359 44.7959C30.5754 44.7702 30.5206 44.7324 30.475 44.685L29.14 43.355C29.0465 43.2607 28.9941 43.1332 28.9944 43.0004C28.9946 42.8676 29.0475 42.7403 29.1414 42.6464C29.2353 42.5525 29.3626 42.4997 29.4954 42.4994C29.6282 42.4991 29.7557 42.5515 29.85 42.645L30.83 43.625L33.14 41.315C33.2341 41.224 33.3602 41.1735 33.4911 41.1744C33.6221 41.1752 33.7474 41.2274 33.8404 41.3197C33.9333 41.4119 33.9863 41.5369 33.9881 41.6679C33.9899 41.7988 33.9403 41.9252 33.85 42.02ZM33.85 36.02L31.18 38.685C31.1343 38.7324 31.0796 38.7702 31.019 38.7959C30.9584 38.8217 30.8933 38.835 30.8275 38.835C30.7617 38.835 30.6965 38.8217 30.6359 38.7959C30.5754 38.7702 30.5206 38.7324 30.475 38.685L29.14 37.355C29.093 37.3084 29.0558 37.2531 29.0303 37.1921C29.0048 37.1311 28.9916 37.0657 28.9915 36.9996C28.9913 36.9335 29.0043 36.868 29.0295 36.8069C29.0547 36.7458 29.0918 36.6903 29.1385 36.6435C29.1853 36.5968 29.2408 36.5598 29.3019 36.5345C29.363 36.5093 29.4284 36.4964 29.4946 36.4965C29.5607 36.4966 29.6261 36.5098 29.6871 36.5353C29.7481 36.5608 29.8034 36.5981 29.85 36.645L30.83 37.625L33.14 35.315C33.2341 35.224 33.3602 35.1735 33.4911 35.1744C33.6221 35.1752 33.7474 35.2274 33.8404 35.3197C33.9333 35.4119 33.9863 35.5369 33.9881 35.6679C33.9899 35.7988 33.9403 35.9252 33.85 36.02ZM33.85 30.02L31.18 32.685C31.1343 32.7324 31.0796 32.7702 31.019 32.7959C30.9584 32.8217 30.8933 32.835 30.8275 32.835C30.7617 32.835 30.6965 32.8217 30.6359 32.7959C30.5754 32.7702 30.5206 32.7324 30.475 32.685L29.14 31.355C29.0465 31.2607 28.9941 31.1332 28.9944 31.0004C28.9946 30.8676 29.0475 30.7403 29.1414 30.6464C29.2353 30.5525 29.3626 30.4997 29.4954 30.4994C29.6282 30.4991 29.7557 30.5515 29.85 30.645L30.83 31.625L33.14 29.315C33.2341 29.224 33.3602 29.1735 33.4911 29.1744C33.6221 29.1752 33.7474 29.2274 33.8404 29.3197C33.9333 29.4119 33.9863 29.5369 33.9881 29.6679C33.9899 29.7988 33.9403 29.9252 33.85 30.02ZM44.495 49.5H35.495C35.3624 49.5 35.2352 49.4473 35.1414 49.3536C35.0477 49.2598 34.995 49.1326 34.995 49C34.995 48.8674 35.0477 48.7402 35.1414 48.6464C35.2352 48.5527 35.3624 48.5 35.495 48.5H44.495C44.6262 48.502 44.7514 48.5556 44.8436 48.6492C44.9357 48.7427 44.9873 48.8687 44.9873 49C44.9873 49.1313 44.9357 49.2573 44.8436 49.3508C44.7514 49.4444 44.6262 49.498 44.495 49.5ZM44.495 43.5H35.495C35.3624 43.5 35.2352 43.4473 35.1414 43.3536C35.0477 43.2598 34.995 43.1326 34.995 43C34.995 42.8674 35.0477 42.7402 35.1414 42.6464C35.2352 42.5527 35.3624 42.5 35.495 42.5H44.495C44.6262 42.502 44.7514 42.5556 44.8436 42.6492C44.9357 42.7427 44.9873 42.8687 44.9873 43C44.9873 43.1313 44.9357 43.2573 44.8436 43.3508C44.7514 43.4444 44.6262 43.498 44.495 43.5ZM44.495 37.5H35.495C35.3624 37.5 35.2352 37.4473 35.1414 37.3536C35.0477 37.2598 34.995 37.1326 34.995 37C34.995 36.8674 35.0477 36.7402 35.1414 36.6464C35.2352 36.5527 35.3624 36.5 35.495 36.5H44.495C44.6262 36.502 44.7514 36.5556 44.8436 36.6492C44.9357 36.7427 44.9873 36.8687 44.9873 37C44.9873 37.1313 44.9357 37.2573 44.8436 37.3508C44.7514 37.4444 44.6262 37.498 44.495 37.5ZM44.495 31.5H35.495C35.3624 31.5 35.2352 31.4473 35.1414 31.3536C35.0477 31.2598 34.995 31.1326 34.995 31C34.995 30.8674 35.0477 30.7402 35.1414 30.6464C35.2352 30.5527 35.3624 30.5 35.495 30.5H44.495C44.6262 30.502 44.7514 30.5556 44.8436 30.6492C44.9357 30.7427 44.9873 30.8687 44.9873 31C44.9873 31.1313 44.9357 31.2573 44.8436 31.3508C44.7514 31.4444 44.6262 31.498 44.495 31.5Z" fill="#2A948F"/>
<path d="M48.995 32.075V33H53.15V32.075C53.1444 31.5277 52.923 31.0048 52.534 30.6198C52.145 30.2348 51.6198 30.0188 51.0725 30.0188C50.5252 30.0188 50 30.2348 49.611 30.6198C49.222 31.0048 49.0006 31.5277 48.995 32.075Z" fill="#2A948F"/>
<path d="M48.9951 46.5C48.9941 46.5634 49.006 46.6263 49.0301 46.685L50.605 50.685C50.6422 50.778 50.7063 50.8577 50.7892 50.9138C50.8721 50.97 50.9699 51 51.0701 51C51.1702 51 51.268 50.97 51.3509 50.9138C51.4338 50.8577 51.4979 50.778 51.5351 50.685L53.1151 46.685C53.1368 46.6257 53.1486 46.5632 53.15 46.5V34H48.9951V46.5Z" fill="#2A948F"/>
</svg>
