<svg width="16" height="14" viewBox="0 0 16 14" fill="none" xmlns="http://www.w3.org/2000/svg">
<path d="M14.9556 5.87499L11.8411 8.91099L12.5766 13.199C12.6086 13.3865 12.5316 13.576 12.3776 13.688C12.2906 13.7515 12.1871 13.7835 12.0836 13.7835C12.0041 13.7835 11.9241 13.7645 11.8511 13.726L8.00008 11.7015L4.14958 13.7255C3.98158 13.8145 3.77708 13.8 3.62308 13.6875C3.46908 13.5755 3.39208 13.386 3.42408 13.1985L4.15958 8.91049L1.04458 5.87499C0.908578 5.74199 0.859078 5.54299 0.918078 5.36249C0.977078 5.18199 1.13358 5.04949 1.32208 5.02199L5.62658 4.39699L7.55158 0.495993C7.72008 0.154493 8.28008 0.154493 8.44858 0.495993L10.3736 4.39699L14.6781 5.02199C14.8666 5.04949 15.0231 5.18149 15.0821 5.36249C15.1411 5.54349 15.0916 5.74149 14.9556 5.87499Z" fill="#12B76A"/>
</svg>
