<svg width="30" height="31" viewBox="0 0 30 31" fill="none" xmlns="http://www.w3.org/2000/svg">
<g clip-path="url(#clip0_2906_55796)">
<path d="M15 30.459C23.2843 30.459 30 23.7433 30 15.459C30 7.17471 23.2843 0.458984 15 0.458984C6.71573 0.458984 0 7.17471 0 15.459C0 23.7433 6.71573 30.459 15 30.459Z" fill="#039BE5"/>
<path d="M6.86383 15.1338L21.3263 9.55751C21.9976 9.31501 22.5838 9.72126 22.3663 10.7363L22.3676 10.735L19.9051 22.3363C19.7226 23.1588 19.2338 23.3588 18.5501 22.9713L14.8001 20.2075L12.9913 21.95C12.7913 22.15 12.6226 22.3188 12.2351 22.3188L12.5013 18.5025L19.4513 12.2238C19.7538 11.9575 19.3838 11.8075 18.9851 12.0725L10.3963 17.48L6.69383 16.325C5.89008 16.07 5.87258 15.5213 6.86383 15.1338Z" fill="white"/>
</g>
<defs>
<clipPath id="clip0_2906_55796">
<rect width="30" height="30" fill="white" transform="translate(0 0.458984)"/>
</clipPath>
</defs>
</svg>
