<svg width="28" height="28" viewBox="0 0 28 28" fill="none" xmlns="http://www.w3.org/2000/svg">
<g clip-path="url(#clip0_7434_23616)">
<path d="M14 28C21.732 28 28 21.732 28 14C28 6.26801 21.732 0 14 0C6.26801 0 0 6.26801 0 14C0 21.732 6.26801 28 14 28Z" fill="#039BE5"/>
<path d="M6.40617 13.6967L19.9045 8.49216C20.531 8.26583 21.0782 8.645 20.8752 9.59233L20.8763 9.59116L18.578 20.419C18.4077 21.1867 17.9515 21.3733 17.3133 21.0117L13.8133 18.4322L12.1252 20.0585C11.9385 20.2452 11.781 20.4027 11.4193 20.4027L11.6678 16.8408L18.1545 10.9807C18.4368 10.7322 18.0915 10.5922 17.7193 10.8395L9.70317 15.8865L6.2475 14.8085C5.49733 14.5705 5.481 14.0583 6.40617 13.6967Z" fill="white"/>
</g>
<defs>
<clipPath id="clip0_7434_23616">
<rect width="28" height="28" fill="white"/>
</clipPath>
</defs>
</svg>
