<svg width="30" height="31" viewBox="0 0 30 31" fill="none" xmlns="http://www.w3.org/2000/svg">
<g clip-path="url(#clip0_2906_55810)">
<path d="M15 0.458984C6.71601 0.458984 0 7.175 0 15.459C0 23.743 6.71601 30.459 15 30.459C23.284 30.459 30 23.743 30 15.459C30 7.175 23.284 0.458984 15 0.458984Z" fill="black"/>
<path d="M16.6415 14.1015L23.0628 6.63721H21.5411L15.9655 13.1183L11.5123 6.63721H6.37598L13.1101 16.4378L6.37598 24.2652H7.89771L13.7857 17.4209L18.4887 24.2652H23.6249L16.6411 14.1015H16.6415ZM8.446 7.78276H10.7833L21.5418 23.1718H19.2045L8.446 7.78276Z" fill="white"/>
</g>
<defs>
<clipPath id="clip0_2906_55810">
<rect width="30" height="30" fill="white" transform="translate(0 0.458984)"/>
</clipPath>
</defs>
</svg>
