<svg width="40" height="40" viewBox="0 0 40 40" fill="none" xmlns="http://www.w3.org/2000/svg">
<g clip-path="url(#clip0_9495_59340)">
<path d="M20 40C31.0457 40 40 31.0457 40 20C40 8.9543 31.0457 0 20 0C8.9543 0 0 8.9543 0 20C0 31.0457 8.9543 40 20 40Z" fill="#29A71A"/>
<path d="M28.818 11.1818C26.7372 9.08023 23.9738 7.79139 21.0264 7.54778C18.079 7.30417 15.1416 8.12183 12.7439 9.85328C10.3463 11.5847 8.64629 14.116 7.95059 16.9904C7.25488 19.8649 7.60926 22.8934 8.94981 25.5295L7.6339 31.9182C7.62024 31.9818 7.61986 32.0475 7.63276 32.1112C7.64567 32.175 7.67158 32.2354 7.7089 32.2886C7.76356 32.3695 7.84158 32.4317 7.93254 32.4671C8.02351 32.5024 8.12309 32.5091 8.21799 32.4864L14.4794 31.0023C17.1081 32.3089 20.1152 32.6405 22.9655 31.9381C25.8158 31.2356 28.3245 29.5448 30.0452 27.1663C31.7658 24.7878 32.5868 21.876 32.3621 18.9491C32.1374 16.0221 30.8815 13.2698 28.818 11.1818ZM26.8657 26.7636C25.426 28.1993 23.5721 29.147 21.5652 29.4732C19.5583 29.7994 17.4996 29.4876 15.6794 28.5818L14.8066 28.15L10.968 29.0591L10.9794 29.0114L11.7748 25.1477L11.3475 24.3046C10.4174 22.4779 10.0893 20.4037 10.4102 18.3792C10.7311 16.3546 11.6845 14.4836 13.1339 13.0341C14.955 11.2135 17.4247 10.1908 19.9998 10.1908C22.5749 10.1908 25.0446 11.2135 26.8657 13.0341C26.8812 13.0519 26.8979 13.0686 26.9157 13.0841C28.7143 14.9094 29.7183 17.3717 29.709 19.9342C29.6996 22.4967 28.6776 24.9516 26.8657 26.7636Z" fill="white"/>
<path d="M26.5249 23.9296C26.0545 24.6705 25.3113 25.5773 24.3772 25.8023C22.7408 26.1978 20.2295 25.816 17.1045 22.9023L17.0658 22.8682C14.3181 20.3205 13.6045 18.2 13.7772 16.5182C13.8727 15.5637 14.6681 14.7 15.3386 14.1364C15.4446 14.0459 15.5703 13.9815 15.7056 13.9483C15.8409 13.9151 15.9822 13.9141 16.118 13.9452C16.2538 13.9763 16.3805 14.0388 16.4879 14.1277C16.5952 14.2165 16.6803 14.3293 16.7363 14.4569L17.7477 16.7296C17.8134 16.877 17.8377 17.0394 17.8181 17.1996C17.7985 17.3597 17.7356 17.5115 17.6363 17.6387L17.1249 18.3023C17.0152 18.4393 16.949 18.6061 16.9348 18.781C16.9206 18.956 16.9592 19.1312 17.0454 19.2841C17.3317 19.7864 18.0181 20.525 18.7795 21.2091C19.634 21.9819 20.5817 22.6887 21.1817 22.9296C21.3423 22.9952 21.5188 23.0112 21.6885 22.9755C21.8583 22.9399 22.0134 22.8542 22.134 22.7296L22.7272 22.1319C22.8417 22.019 22.984 21.9385 23.1397 21.8986C23.2954 21.8587 23.4589 21.8607 23.6136 21.9046L26.0158 22.5864C26.1484 22.6271 26.2698 22.6975 26.3709 22.7923C26.4721 22.8871 26.5502 23.0037 26.5993 23.1333C26.6484 23.2629 26.6673 23.4021 26.6544 23.5401C26.6415 23.6781 26.5972 23.8113 26.5249 23.9296Z" fill="white"/>
</g>
<defs>
<clipPath id="clip0_9495_59340">
<rect width="40" height="40" fill="white"/>
</clipPath>
</defs>
</svg>
