<svg width="64" height="64" viewBox="0 0 64 64" fill="none" xmlns="http://www.w3.org/2000/svg">
<rect x="0.5" y="0.5" width="63" height="63" rx="31.5" stroke="url(#paint0_linear_5134_1101)"/>
<g clip-path="url(#clip0_5134_1101)">
<path d="M40.5096 37.1759V34.8875H40.124C39.5278 34.8875 39.0427 34.4024 39.0427 33.8062V26.4945C39.0427 25.8973 39.5278 25.4114 40.124 25.4114H40.5096V23.9132C40.5096 23.499 40.8454 23.1632 41.2596 23.1632C41.6738 23.1632 42.0096 23.499 42.0096 23.9132V25.4114H42.3935C42.9907 25.4114 43.4766 25.8973 43.4766 26.4945V33.8062C43.4766 34.4024 42.9907 34.8875 42.3935 34.8875H42.0096V37.1759C42.0096 37.5901 41.6738 37.9259 41.2596 37.9259C40.8454 37.9259 40.5096 37.5901 40.5096 37.1759ZM22.7422 44.0222C23.1564 44.0222 23.4922 43.6864 23.4922 43.2722V41.6659H23.8778C24.4741 41.6659 24.9591 41.18 24.9591 40.5828V36.2741C24.9591 35.6769 24.4741 35.1911 23.8778 35.1911H23.4922V34.3289C23.4922 33.9147 23.1564 33.5789 22.7422 33.5789C22.328 33.5789 21.9922 33.9147 21.9922 34.3289V35.1911H21.6066C21.0103 35.1911 20.5252 35.6769 20.5252 36.2741V40.5828C20.5252 41.18 21.0103 41.6659 21.6066 41.6659H21.9922V43.2722C21.9922 43.6864 22.328 44.0222 22.7422 44.0222ZM28.9147 42.6332C29.3289 42.6332 29.6647 42.2974 29.6647 41.8832V39.5966H30.0503C30.6466 39.5966 31.1316 39.1107 31.1316 38.5135V31.2018C31.1316 30.6056 30.6466 30.1205 30.0503 30.1205H29.6647V28.6205C29.6647 28.2063 29.3289 27.8705 28.9147 27.8705C28.5005 27.8705 28.1647 28.2063 28.1647 28.6205V30.1205H27.7791C27.1828 30.1205 26.6978 30.6056 26.6978 31.2018V38.5135C26.6978 39.1107 27.1828 39.5966 27.7791 39.5966H28.1647V41.8832C28.1647 42.2974 28.5005 42.6332 28.9147 42.6332ZM35.0872 41.1379C35.5014 41.1379 35.8372 40.8021 35.8372 40.3879V38.9694H36.2228C36.8191 38.9694 37.3041 38.4843 37.3041 37.8881V31.4091C37.3041 30.8119 36.8191 30.326 36.2228 30.326H35.8372V29.051C35.8372 28.6368 35.5014 28.301 35.0872 28.301C34.673 28.301 34.3372 28.6368 34.3372 29.051V30.326H33.9516C33.3553 30.326 32.8703 30.8119 32.8703 31.4091V37.8881C32.8703 38.4843 33.3553 38.9694 33.9516 38.9694H34.3372V40.3879C34.3372 40.8021 34.673 41.1379 35.0872 41.1379ZM46.7501 45.9999H18V17.25C18 16.8358 17.6642 16.5 17.25 16.5C16.8358 16.5 16.5 16.8358 16.5 17.25V46.75C16.5 47.1642 16.8358 47.5 17.25 47.5H46.75C47.1642 47.5 47.5 47.1642 47.5 46.75C47.5 46.3358 47.1642 46 46.75 46L46.7501 45.9999ZM21.2752 32.6162C21.4671 32.6162 21.6591 32.543 21.8056 32.3965L29.6396 24.5608L33.8914 26.4634C34.1753 26.5904 34.5081 26.5291 34.7281 26.3091L41.9765 19.0607V20.09C41.9765 20.5042 42.3123 20.84 42.7265 20.84C43.1407 20.84 43.4765 20.5042 43.4765 20.09V17.25C43.4765 16.8358 43.1407 16.5 42.7265 16.5H39.8866C39.4724 16.5 39.1366 16.8358 39.1366 17.25C39.1366 17.6642 39.4724 18 39.8866 18H40.9159L34.0327 24.8833L29.7809 22.9806C29.497 22.8535 29.1641 22.915 28.9441 23.1349L20.7448 31.3359C20.4519 31.6289 20.452 32.1038 20.7449 32.3966C20.8914 32.543 21.0833 32.6162 21.2752 32.6162Z" fill="url(#paint1_linear_5134_1101)"/>
</g>
<defs>
<linearGradient id="paint0_linear_5134_1101" x1="32.1333" y1="64" x2="32.1333" y2="-21.4857" gradientUnits="userSpaceOnUse">
<stop stop-color="#FBEB37"/>
<stop offset="0.631058" stop-color="#FEFACD"/>
<stop offset="1" stop-color="#FEFCE6"/>
</linearGradient>
<linearGradient id="paint1_linear_5134_1101" x1="32.0646" y1="47.5" x2="32.0646" y2="6.09286" gradientUnits="userSpaceOnUse">
<stop stop-color="#FBEB37"/>
<stop offset="0.631058" stop-color="#FEFACD"/>
<stop offset="1" stop-color="#FEFCE6"/>
</linearGradient>
<clipPath id="clip0_5134_1101">
<rect width="32" height="32" fill="white" transform="translate(16 16)"/>
</clipPath>
</defs>
</svg>
