<svg width="30" height="31" viewBox="0 0 30 31" fill="none" xmlns="http://www.w3.org/2000/svg">
<g clip-path="url(#clip0_2906_55814)">
<path d="M15 30.459C23.2843 30.459 30 23.7433 30 15.459C30 7.17471 23.2843 0.458984 15 0.458984C6.71573 0.458984 0 7.17471 0 15.459C0 23.7433 6.71573 30.459 15 30.459Z" fill="#3B5998"/>
<path d="M18.7708 16.0463H16.0943V25.852H12.039V16.0463H10.1104V12.6002H12.039V10.3702C12.039 8.77547 12.7965 6.27832 16.1304 6.27832L19.1342 6.29089V9.63593H16.9547C16.5972 9.63593 16.0945 9.81454 16.0945 10.5753V12.6034H19.1251L18.7708 16.0463Z" fill="white"/>
</g>
<defs>
<clipPath id="clip0_2906_55814">
<rect width="30" height="30" fill="white" transform="translate(0 0.458984)"/>
</clipPath>
</defs>
</svg>
