<svg width="30" height="31" viewBox="0 0 30 31" fill="none" xmlns="http://www.w3.org/2000/svg">
<g clip-path="url(#clip0_2906_55818)">
<path d="M15 30.4585C23.2843 30.4585 30 23.7428 30 15.4585C30 7.17422 23.2843 0.458496 15 0.458496C6.71573 0.458496 0 7.17422 0 15.4585C0 23.7428 6.71573 30.4585 15 30.4585Z" fill="#007AB9"/>
<path d="M23.962 16.6658V22.85H20.3765V17.0803C20.3765 15.6316 19.8589 14.6422 18.5607 14.6422C17.57 14.6422 16.9815 15.3083 16.7216 15.9532C16.6272 16.1837 16.6029 16.5038 16.6029 16.8271V22.8497H13.0172C13.0172 22.8497 13.0653 13.0777 13.0172 12.0662H16.6031V13.5943C16.5959 13.6064 16.5858 13.6181 16.5793 13.6296H16.6031V13.5943C17.0796 12.8612 17.9294 11.813 19.8345 11.813C22.1935 11.813 23.962 13.3542 23.962 16.6658ZM9.26625 6.86816C8.03974 6.86816 7.2373 7.67327 7.2373 8.73106C7.2373 9.7664 8.01648 10.5948 9.21919 10.5948H9.24246C10.493 10.5948 11.2706 9.7664 11.2706 8.73106C11.2468 7.67327 10.493 6.86816 9.26625 6.86816ZM7.45041 22.85H11.0348V12.0662H7.45041V22.85Z" fill="#F1F2F2"/>
</g>
<defs>
<clipPath id="clip0_2906_55818">
<rect width="30" height="30" fill="white" transform="translate(0 0.458984)"/>
</clipPath>
</defs>
</svg>
