<svg width="30" height="31" viewBox="0 0 30 31" fill="none" xmlns="http://www.w3.org/2000/svg">
<g clip-path="url(#clip0_2906_55823)">
<path d="M15 30.459C23.2843 30.459 30 23.7433 30 15.459C30 7.17471 23.2843 0.458984 15 0.458984C6.71573 0.458984 0 7.17471 0 15.459C0 23.7433 6.71573 30.459 15 30.459Z" fill="#FF0000"/>
<path d="M19.9088 9.81641H10.0917C9.69934 9.81641 9.31086 9.89371 8.94843 10.0439C8.586 10.1941 8.25672 10.4142 7.9794 10.6917C7.70209 10.9692 7.48217 11.2987 7.33221 11.6612C7.18226 12.0237 7.10521 12.4122 7.10547 12.8046V18.1138C7.10521 18.5061 7.18226 18.8946 7.33221 19.2571C7.48217 19.6197 7.70209 19.9491 7.9794 20.2266C8.25672 20.5041 8.586 20.7242 8.94843 20.8744C9.31086 21.0246 9.69934 21.1019 10.0917 21.1019H19.9088C20.3011 21.1019 20.6895 21.0246 21.052 20.8744C21.4144 20.7242 21.7437 20.5041 22.021 20.2266C22.2983 19.9491 22.5182 19.6197 22.6682 19.2571C22.8182 18.8946 22.8952 18.5061 22.8949 18.1138V12.8046C22.8952 12.4122 22.8182 12.0237 22.6682 11.6612C22.5182 11.2987 22.2983 10.9692 22.021 10.6917C21.7437 10.4142 21.4144 10.1941 21.052 10.0439C20.6895 9.89371 20.3011 9.81641 19.9088 9.81641ZM12.9199 17.8789V13.0394L17.0805 15.4592L12.9199 17.8789Z" fill="white"/>
</g>
<defs>
<clipPath id="clip0_2906_55823">
<rect width="30" height="30" fill="white" transform="translate(0 0.458984)"/>
</clipPath>
</defs>
</svg>
